<svg width="119" height="44" viewBox="0 0 119 44" fill="none" xmlns="http://www.w3.org/2000/svg">
<path fill-rule="evenodd" clip-rule="evenodd" d="M93.5606 4.64672C93.5651 3.77499 93.6766 3.04026 93.9077 2.44535C94.138 1.85512 94.5101 1.3775 95.0169 1.0153C95.5201 0.655909 96.1912 0.390355 97.0264 0.23365C97.8598 0.0778833 98.8788 0 100.091 0H109.722C110.934 0 111.951 0.0778833 112.779 0.23365C113.612 0.390355 114.288 0.657785 114.801 1.03125C115.316 1.40565 115.684 1.8936 115.907 2.48757C116.129 3.0778 116.243 3.80221 116.24 4.64672L116.189 15.7906C116.185 16.6614 116.065 17.3905 115.836 17.976C115.609 18.5587 115.235 19.0401 114.717 19.4117C114.2 19.7833 113.522 20.0442 112.688 20.2037C111.858 20.3623 110.839 20.443 109.628 20.443H99.9969C98.7869 20.443 97.7679 20.3623 96.9353 20.2037C96.1028 20.0442 95.4327 19.787 94.933 19.4277C94.4297 19.0655 94.063 18.5878 93.8373 17.992C93.6115 17.3971 93.5053 16.6623 93.5098 15.7906L93.5606 4.64672ZM103.511 5.5025L103.468 14.9667C103.463 16.0027 103.918 16.5244 104.826 16.5244C105.308 16.5244 105.655 16.4005 105.87 16.1575C106.088 15.9126 106.2 15.5194 106.203 14.9667L106.247 5.5025C106.251 4.46562 105.797 3.94484 104.883 3.94484C104.411 3.94484 104.063 4.06776 103.844 4.31173C103.624 4.5557 103.513 4.95638 103.511 5.5025Z" fill="#B9B9B9"/>
<path fill-rule="evenodd" clip-rule="evenodd" d="M45.2404 0.0382965L45.244 0.0392349C46.2354 0.0598786 47.0911 0.137762 47.8022 0.272885C48.6517 0.432405 49.3388 0.687637 49.8626 1.04984C50.3864 1.40641 50.7629 1.87465 50.9923 2.45455C51.2207 3.03446 51.3322 3.73634 51.326 4.56116L51.3037 8.17288C51.193 10.2448 49.4673 10.2157 48.1395 10.1875L48.1119 10.2804C49.4459 10.4418 51.027 10.6914 51.2742 12.9801L51.2555 15.9246C51.2448 16.7701 51.1181 17.4832 50.8807 18.0631C50.6434 18.643 50.2659 19.1113 49.7359 19.4725C49.2112 19.8291 48.5214 20.09 47.6639 20.2438C46.8118 20.4034 45.7633 20.4831 44.5275 20.4831H34.6826C34.5515 20.4831 34.423 20.4822 34.2963 20.4803L28.0858 20.4737L28.1028 16.7691C28.0778 16.5045 28.0671 16.2221 28.0706 15.9237L28.1813 0.0382965C33.3165 0.0364198 44.7577 0.0336048 45.2404 0.0382965ZM38.1519 12.1111L38.1394 14.8333C38.135 15.8683 38.5892 16.391 39.4975 16.391C39.9794 16.391 40.3265 16.2671 40.5415 16.0241C40.7593 15.7792 40.8717 15.386 40.8744 14.8333L40.8869 12.1111C40.8913 11.0743 40.4371 10.5535 39.5243 10.5535C39.0523 10.5535 38.7043 10.6764 38.4848 10.9204C38.2662 11.1643 38.1537 11.565 38.1519 12.1111ZM39.5172 7.96175C35.0574 7.96175 45.0522 7.96175 39.5172 7.96175ZM38.2073 4.86987L38.193 8.03306L39.5306 7.54887C40.1721 7.31522 40.6156 7.03841 40.8646 6.71937C41.109 6.40033 41.2358 5.93209 41.2438 5.30996L41.2456 4.86894C41.2509 3.7842 40.7566 3.24183 39.7634 3.24183C39.2468 3.24183 38.864 3.36945 38.5999 3.61905C38.3402 3.87428 38.2099 4.28997 38.2073 4.86987Z" fill="#B9B9B9"/>
<path fill-rule="evenodd" clip-rule="evenodd" d="M14.7662 7.28032L14.784 5.489C14.7921 4.86688 14.6752 4.4418 14.4369 4.20721C14.1996 3.97356 13.823 3.85627 13.3064 3.85627C12.7897 3.85627 12.4176 3.98389 12.1874 4.23912C11.9626 4.49435 11.8466 4.9091 11.8394 5.489L11.8367 6.15899H2.27031L2.28726 4.6914C2.29083 3.81404 2.40862 3.08025 2.63972 2.4844C2.87083 1.88854 3.24025 1.40998 3.75868 1.04872C4.27176 0.681821 4.94812 0.420959 5.78332 0.261439C6.61852 0.107549 7.64111 0.0277892 8.85286 0.0277892H18.032C19.2429 0.0277892 20.2655 0.107549 21.0989 0.261439C21.9323 0.420959 22.606 0.686513 23.1253 1.06467C23.6402 1.4372 24.0105 1.92045 24.2354 2.5163C24.4558 3.11685 24.5673 3.84032 24.5682 4.6914L24.4915 20.4717H8.8484C6.62923 20.5139 4.94812 20.041 3.81043 19.052C2.67274 18.0629 2.04099 16.2125 1.91428 13.5063C2.26049 9.47607 4.56354 7.39667 8.81895 7.28032H14.7662ZM14.8072 14.5591L14.8215 11.3959L13.4839 11.8801C12.8424 12.1138 12.3998 12.3906 12.1499 12.7096C11.9054 13.0287 11.7787 13.4969 11.7707 14.119L11.7689 14.5601C11.7636 15.6448 12.2579 16.1872 13.251 16.1872C13.7677 16.1872 14.1505 16.0595 14.4146 15.8099C14.6743 15.5547 14.8046 15.139 14.8072 14.5591Z" fill="#B9B9B9"/>
<path fill-rule="evenodd" clip-rule="evenodd" d="M68.5389 0.162765H76.0138C76.9168 0.162765 77.6547 0.954735 77.652 1.92124L77.6119 18.0694C77.6092 19.0368 76.8695 19.8278 75.9665 19.8278H68.4916C67.5886 19.8278 66.8506 19.0368 66.8533 18.0694L66.8935 1.92124C66.8961 0.953797 67.635 0.162765 68.5389 0.162765Z" fill="#B9B9B9"/>
<path fill-rule="evenodd" clip-rule="evenodd" d="M81.452 0.162765H88.9269C89.8299 0.162765 90.5679 0.954735 90.5652 1.92124L90.525 18.0694C90.5223 19.0359 89.7826 19.8278 88.8796 19.8278H81.4047C80.5017 19.8278 79.7638 19.0368 79.7665 18.0694L79.8066 1.92124C79.8093 0.953797 80.5481 0.162765 81.452 0.162765Z" fill="#B9B9B9"/>
<path fill-rule="evenodd" clip-rule="evenodd" d="M55.6294 0.0317591H63.1043C64.0073 0.0317591 64.7452 0.823729 64.7426 1.79023L64.7024 17.9383C64.6997 18.9058 63.96 19.6968 63.057 19.6968H55.5821C54.6791 19.6968 53.9412 18.9058 53.9438 17.9383L53.984 1.79023C53.9867 0.82279 54.7255 0.0317591 55.6294 0.0317591Z" fill="#B9B9B9"/>
<path d="M36.9404 32.1848C36.9404 29.9596 35.3976 29.5693 33.3115 29.5693H29.4435V34.8003H33.3115C35.3976 34.8003 36.9404 34.4099 36.9404 32.1848Z" fill="#B9B9B9"/>
<path d="M47.4897 31.4821C47.8374 30.311 48.9239 29.5693 50.2929 29.5693H53.3134V34.5465H46.5553L47.4897 31.4821Z" fill="#B9B9B9"/>
<path d="M104.873 29.5693C103.504 29.5693 102.418 30.311 102.07 31.4821L101.136 34.5465H107.894V29.5693H104.873Z" fill="#B9B9B9"/>
<path fill-rule="evenodd" clip-rule="evenodd" d="M5.66444 22.8739C1.53541 22.8739 0.000952488 19.7896 0.000952488 19.7896H0V39.6836C0 42.0576 1.97355 44 4.38144 44H114.619C117.026 44 119 42.0557 119 39.6836V19.7896C119 19.7896 117.466 22.8739 113.337 22.8739H5.66444ZM22.3977 39.6409C22.3977 40.1289 21.9414 40.5388 21.3764 40.5388H19.399C18.8557 40.5388 18.3994 40.1289 18.3994 39.6409V29.5693H10.6416V39.6409C10.6416 40.1289 10.1853 40.5388 9.64203 40.5388H7.64283C7.07785 40.5388 6.64324 40.1289 6.64324 39.6409V27.7735C6.64324 27.2661 7.07785 26.8757 7.62111 26.8757H21.3981C21.9414 26.8757 22.3977 27.2661 22.3977 27.7735V39.6409ZM25.4451 27.7735C25.4451 27.2661 25.8797 26.8757 26.4229 26.8757H34.5284C38.5702 26.8757 40.9388 28.5152 40.9388 32.1848C40.9388 35.8543 38.5702 37.4938 34.5284 37.4938H29.4435V39.6409C29.4435 40.1289 29.0089 40.5388 28.4439 40.5388H26.4447C25.9014 40.5388 25.4451 40.1289 25.4451 39.6409V27.7735ZM40.9706 39.6604C40.8184 40.1484 41.1444 40.5388 41.7094 40.5388H43.7955C44.3605 40.5388 44.9038 40.1484 45.0559 39.6409L45.773 37.2401H53.3134V39.6409C53.3134 40.1484 53.748 40.5388 54.313 40.5388H56.3122C56.8554 40.5388 57.3118 40.1484 57.3118 39.6604V27.754C57.3118 27.2856 56.9206 26.8757 56.3991 26.8757H50.684C47.5983 26.8757 44.5343 27.5588 43.6434 30.5842L40.9706 39.6604ZM61.3533 40.5388C60.81 40.5388 60.3537 40.1484 60.3537 39.6604V27.7735C60.3537 27.2661 60.7883 26.8757 61.3533 26.8757H71.61C72.175 26.8757 72.6096 27.2661 72.6096 27.7735V28.6714C72.6096 29.1789 72.175 29.5693 71.61 29.5693H64.3521V39.6604C64.3521 40.1484 63.8957 40.5388 63.3525 40.5388H61.3533ZM84.8124 40.5388C85.3556 40.5388 85.9206 40.1484 86.1162 39.6799L89.8538 30.311V39.6214C89.8538 40.1289 90.2884 40.5388 90.8534 40.5388H92.7657C93.3307 40.5388 93.7653 40.1289 93.7653 39.6214V27.7931C93.7653 27.2856 93.3307 26.8757 92.7874 26.8757H88.4631C87.8981 26.8757 87.3548 27.2856 87.181 27.7735L84.0518 35.9128L80.9227 27.7735C80.7488 27.2856 80.2056 26.8757 79.6406 26.8757H75.3162C74.773 26.8757 74.3384 27.2856 74.3384 27.7931V39.6214C74.3384 40.1289 74.773 40.5388 75.3379 40.5388H77.2502C77.8152 40.5388 78.2498 40.1289 78.2498 39.6214V30.311L81.9874 39.6799C82.183 40.1484 82.748 40.5388 83.2913 40.5388H84.8124ZM96.2899 40.5388C95.7249 40.5388 95.399 40.1484 95.5511 39.6604L98.2239 30.5842C99.1149 27.5588 102.179 26.8757 105.265 26.8757H110.98C111.501 26.8757 111.892 27.2856 111.892 27.754V39.6604C111.892 40.1484 111.436 40.5388 110.893 40.5388H108.894C108.329 40.5388 107.894 40.1484 107.894 39.6409V37.2401H100.353L99.6364 39.6409C99.4843 40.1484 98.941 40.5388 98.376 40.5388H96.2899Z" fill="#B9B9B9"/>
</svg>
