<svg width="112" height="46" viewBox="0 0 112 46" fill="none" xmlns="http://www.w3.org/2000/svg">
<path fill-rule="evenodd" clip-rule="evenodd" d="M102.974 38.7592L102.215 35.6218H102.186L101.42 38.7592H102.974ZM108.126 43.253H104.076L103.602 41.3028H100.806L100.333 43.253H96.2755L99.4332 32.5977H104.975L108.126 43.253ZM95.7726 32.5977L92.1604 37.8712L95.7583 43.253H91.3038L88.7719 38.844V43.253H84.917V32.5977H88.7719V36.8089L91.4561 32.5977H95.7726ZM78.9506 39.8944C78.9506 39.2513 78.5936 38.9287 77.8773 38.9287H76.966V40.7094H77.8773C78.1202 40.7094 78.3486 40.6433 78.5674 40.5092C78.8221 40.349 78.9506 40.144 78.9506 39.8944ZM78.7103 36.0011C78.7103 35.4005 78.3914 35.099 77.7561 35.099H76.966V36.9361C77.5705 36.9361 78.0059 36.8702 78.2723 36.7359C78.5652 36.5947 78.7103 36.3497 78.7103 36.0011ZM82.934 40.0169C82.934 40.9236 82.6412 41.6561 82.056 42.2167C81.3302 42.9068 80.214 43.253 78.7078 43.253H73.1969V32.5977H78.5484C79.9499 32.5977 80.9399 32.8544 81.5157 33.3701C81.9559 33.7706 82.1772 34.3641 82.1772 35.1508C82.1772 35.6666 82.0036 36.107 81.6561 36.4768C81.3516 36.7901 80.9541 37.0162 80.4688 37.1599C81.2159 37.3341 81.8084 37.6639 82.2439 38.1467C82.7032 38.6579 82.934 39.2797 82.934 40.0169ZM66.7045 38.7592L65.9454 35.6218H65.9169L65.1506 38.7592H66.7045ZM71.8562 43.253H67.8062L67.3328 41.3028H64.5367L64.0632 43.253H60.0061L63.1637 32.5977H68.7056L71.8562 43.253ZM60.1716 35.6924H57.904V43.253H54.0491V35.6924H51.7791V32.5977H60.1716V35.6924ZM50.4956 42.9563C49.5795 43.3802 48.6181 43.5922 47.6091 43.5922C45.8531 43.5922 44.4372 43.0741 43.3663 42.0353C42.2957 40.9991 41.7603 39.6282 41.7603 37.9254C41.7603 36.1212 42.3837 34.6915 43.6281 33.6387C44.7157 32.7177 46.0196 32.2585 47.5401 32.2585C48.5895 32.2585 49.5746 32.4752 50.4956 32.9086V36.173C49.7698 35.6549 48.9726 35.3958 48.0993 35.3958C47.3451 35.3958 46.7549 35.6737 46.3218 36.2318C45.9363 36.7241 45.7436 37.327 45.7436 38.0384C45.7436 38.7168 45.9672 39.2868 46.4171 39.7554C46.8643 40.2218 47.4259 40.455 48.0993 40.455C49.0797 40.455 49.8769 40.2006 50.4956 39.6919V42.9563ZM36.2696 37.9254C36.2696 37.2069 36.0532 36.6276 35.6201 36.1872C35.2155 35.7726 34.7278 35.5654 34.1566 35.5654C33.5761 35.5654 33.0835 35.7726 32.6789 36.1872C32.2458 36.6276 32.0293 37.2069 32.0293 37.9254C32.0293 38.6437 32.2458 39.2231 32.6789 39.6635C33.0835 40.0781 33.5761 40.2854 34.1566 40.2854C34.7278 40.2854 35.2155 40.0781 35.6201 39.6635C36.0532 39.2231 36.2696 38.6437 36.2696 37.9254ZM40.253 37.9254C40.253 39.4988 39.7628 40.8035 38.7825 41.8399C37.676 43.0082 36.134 43.5922 34.1543 43.5922C32.1696 43.5922 30.623 43.0082 29.5165 41.8399C28.5361 40.8035 28.0459 39.4988 28.0459 37.9254C28.0459 36.3521 28.5361 35.0471 29.5165 34.0109C30.623 32.8427 32.1696 32.2585 34.1543 32.2585C36.134 32.2585 37.676 32.8427 38.7825 34.0109C39.7628 35.0471 40.253 36.3521 40.253 37.9254ZM22.7529 36.1046C22.7529 35.4618 22.3698 35.1414 21.6012 35.1414H21.2111V37.0633H21.5108C22.3389 37.0633 22.7529 36.743 22.7529 36.1046ZM26.6078 36.3237C26.6078 37.3389 26.2485 38.1374 25.5274 38.7168C24.7922 39.3103 23.7595 39.6071 22.4246 39.6071H21.2111V43.253H17.356V32.5977H22.0128C23.6072 32.5977 24.8017 32.9768 25.5964 33.7352C26.2699 34.3807 26.6078 35.2427 26.6078 36.3237ZM14.8638 43.253H11.0089V35.5654H8.39627V43.253H4.54125V32.5977H14.8638V43.253ZM1.31757 29.8507L0 46L110.682 45.9689L112 29.9129L1.31757 29.8507Z" fill="#B5B5B4"/>
<path fill-rule="evenodd" clip-rule="evenodd" d="M111.998 14.0748C111.998 17.9826 110.759 21.2234 108.279 23.7973C105.48 26.6988 101.579 28.1496 96.571 28.1496C91.5508 28.1496 87.6383 26.6988 84.8393 23.7973C82.3593 21.2234 81.1194 17.9826 81.1194 14.0748C81.1194 10.1671 82.3593 6.92627 84.8393 4.35236C87.6383 1.4508 91.5508 0 96.571 0C101.579 0 105.48 1.4508 108.279 4.35236C110.759 6.92627 111.998 10.1671 111.998 14.0748ZM101.922 14.0748C101.922 12.2907 101.374 10.8516 100.279 9.75774C99.2556 8.72801 98.0216 8.21327 96.577 8.21327C95.1082 8.21327 93.8622 8.72801 92.839 9.75774C91.7434 10.8516 91.1957 12.2907 91.1957 14.0748C91.1957 15.8591 91.7434 17.2981 92.839 18.3921C93.8622 19.4216 95.1082 19.9364 96.577 19.9364C98.0216 19.9364 99.2556 19.4216 100.279 18.3921C101.374 17.2981 101.922 15.8591 101.922 14.0748ZM79.8957 8.52909H74.1591V27.3072H64.4079V8.52909H58.6654V0.842417H79.8957V8.52909ZM57.3963 19.2696C57.3963 21.5218 56.6558 23.3411 55.1751 24.7333C53.3391 26.4474 50.5161 27.3072 46.7059 27.3072H32.7651V0.842417H46.3027C49.848 0.842417 52.3521 1.48008 53.8088 2.76109C54.9223 3.75569 55.4821 5.2299 55.4821 7.1837C55.4821 8.46486 55.0427 9.55869 54.1638 10.4772C53.3934 11.2552 52.3882 11.8168 51.1602 12.1736C53.0503 12.6065 54.5491 13.4254 55.6506 14.6247C56.8124 15.8941 57.3963 17.4386 57.3963 19.2696ZM46.7119 9.29555C46.7119 7.80378 45.9054 7.05504 44.2983 7.05504H42.2997V11.6179C43.8286 11.6179 44.9301 11.4541 45.6044 11.1207C46.3448 10.7696 46.7119 10.1612 46.7119 9.29555ZM47.3198 18.9653C47.3198 17.3683 46.417 16.5669 44.6051 16.5669H42.2997V20.9895H44.6051C45.2191 20.9895 45.797 20.8256 46.3508 20.4922C46.9949 20.0944 47.3198 19.5854 47.3198 18.9653ZM29.9764 27.3072H19.7315L18.5335 22.4636H11.4608L10.2631 27.3072H0L7.98772 0.842417H22.0068L29.9764 27.3072ZM16.9445 16.1457L15.0244 8.35362H14.9521L13.0139 16.1457H16.9445Z" fill="#B5B5B4"/>
</svg>
