<svg width="152" height="33" viewBox="0 0 152 33" fill="none" xmlns="http://www.w3.org/2000/svg">
<g opacity="0.7">
<path d="M25.9591 20.5375C25.9591 22.2801 25.6219 23.9137 24.9477 25.4385C24.2734 26.9632 23.3423 28.2857 22.1543 29.4059C20.9663 30.5262 19.5857 31.413 18.0124 32.0665C16.4391 32.6888 14.7535 33 12.9554 33C11.8317 33 10.6919 32.8133 9.53598 32.4399C8.41221 32.0665 7.52925 31.4597 6.8871 30.6195V32.4399H0V0H6.8871V10.6888C7.11185 10.1287 7.44898 9.66195 7.89849 9.28854C8.3801 8.88402 8.89383 8.57284 9.43966 8.35502C10.0176 8.1372 10.6116 7.98161 11.2216 7.88826C11.8317 7.79491 12.4096 7.74823 12.9554 7.74823C14.7535 7.74823 16.4391 8.09052 18.0124 8.77511C19.5857 9.42857 20.9663 10.3465 22.1543 11.529C23.3423 12.6803 24.2734 14.0339 24.9477 15.5898C25.6219 17.1457 25.9591 18.7949 25.9591 20.5375ZM12.9554 26.3253C13.7581 26.3253 14.5127 26.1853 15.219 25.9052C15.9575 25.5941 16.5997 25.1895 17.1455 24.6917C17.6913 24.1938 18.1248 23.6181 18.4459 22.9646C18.799 22.2801 19.0077 21.5644 19.072 20.8175L19.1201 20.4441L19.072 20.0707C19.0077 19.3239 18.799 18.6238 18.4459 17.9703C18.1248 17.2857 17.6913 16.6945 17.1455 16.1966C16.5997 15.6987 15.9575 15.3098 15.219 15.0297C14.5127 14.7496 13.7581 14.6096 12.9554 14.6096C12.1528 14.6096 11.3822 14.7652 10.6437 15.0764C9.93733 15.3564 9.31123 15.761 8.7654 16.29C8.21957 16.7878 7.77006 17.3791 7.41687 18.0636C7.0958 18.7171 6.9192 19.4328 6.8871 20.2107V20.7242C6.9192 21.5021 7.0958 22.2334 7.41687 22.918C7.77006 23.5714 8.21957 24.1627 8.7654 24.6917C9.31123 25.1895 9.93733 25.5941 10.6437 25.9052C11.3822 26.1853 12.1528 26.3253 12.9554 26.3253Z" fill="#9B9B9B"/>
<path d="M42.4295 14.5163C40.2783 14.5474 38.5124 15.1075 37.1318 16.1966C35.7833 17.2546 35.0608 18.5615 34.9645 20.1174V32.4399H28.0774V8.4017H34.9645V10.2221C35.6067 9.3819 36.5217 8.75955 37.7097 8.35502C38.8977 7.9505 40.471 7.74823 42.4295 7.74823V14.5163Z" fill="#9B9B9B"/>
<path d="M57.2569 7.74823C59.0549 7.74823 60.7406 8.07496 62.3139 8.72843C63.9192 9.3819 65.2999 10.2843 66.4557 11.4356C67.6437 12.5559 68.5748 13.8784 69.2491 15.4031C69.9555 16.9279 70.3087 18.5615 70.3087 20.3041C70.3087 22.0467 69.9715 23.6959 69.2973 25.2518C68.6551 26.7765 67.74 28.1146 66.5521 29.2659C65.3962 30.3861 64.0316 31.2885 62.4583 31.9731C60.8851 32.6577 59.1994 33 57.4014 33C55.6033 33 53.9016 32.6733 52.2963 32.0198C50.723 31.3663 49.3423 30.4795 48.1544 29.3593C46.9664 28.2079 46.0192 26.8699 45.3128 25.3451C44.6386 23.8204 44.3014 22.1867 44.3014 20.4441C44.3014 18.7016 44.6225 17.0679 45.2647 15.5431C45.9389 13.9873 46.854 12.6492 48.0099 11.529C49.1979 10.3777 50.5785 9.45969 52.1518 8.77511C53.7571 8.09052 55.4589 7.74823 57.2569 7.74823ZM61.6396 24.5983C62.8276 23.447 63.4216 22.0467 63.4216 20.3975C63.4216 19.5884 63.261 18.826 62.94 18.1103C62.6189 17.3946 62.1694 16.7567 61.5914 16.1966C60.3713 15.0764 58.9265 14.5163 57.2569 14.5163C55.5873 14.5163 54.1585 15.0919 52.9705 16.2433C51.7825 17.4569 51.1885 18.8571 51.1885 20.4441C51.1885 22.0622 51.7986 23.4625 53.0187 24.645C54.2067 25.7963 55.6515 26.372 57.3532 26.372C58.188 26.3409 58.9747 26.1853 59.7131 25.9052C60.4516 25.5941 61.0938 25.1584 61.6396 24.5983Z" fill="#9B9B9B"/>
<path d="M91.3131 20.3041C91.3131 19.5262 91.1526 18.7949 90.8315 18.1103C90.5104 17.3946 90.0609 16.7723 89.483 16.2433C88.9371 15.7143 88.295 15.2942 87.5565 14.983C86.818 14.6719 86.0314 14.5163 85.1966 14.5163C84.3939 14.5163 83.6233 14.6719 82.8848 14.983C82.1785 15.2631 81.5524 15.6676 81.0065 16.1966C80.4607 16.6945 80.0112 17.2857 79.658 17.9703C79.3369 18.6238 79.1603 19.3395 79.1282 20.1174V32.4399H72.2412V8.4017H79.1282V10.2221C79.7704 9.3819 80.6534 8.75955 81.7771 8.35502C82.933 7.9505 84.0728 7.74823 85.1966 7.74823C86.9946 7.74823 88.6803 8.07496 90.2535 8.72843C91.8268 9.3819 93.2075 10.2843 94.3954 11.4356C95.5834 12.5559 96.5145 13.8784 97.1888 15.4031C97.8631 16.9279 98.2002 18.5615 98.2002 20.3041V32.4399H91.3131V20.3041Z" fill="#9B9B9B"/>
<path d="M107.978 23.0113C108.235 23.5403 108.637 24.0849 109.183 24.645C110.37 25.7963 111.815 26.372 113.517 26.372C114.833 26.3409 116.021 25.9519 117.081 25.2051L123.053 28.8925C121.897 30.1683 120.5 31.1796 118.863 31.9265C117.258 32.6422 115.492 33 113.565 33C111.767 33 110.065 32.6733 108.46 32.0198C106.887 31.3663 105.506 30.4795 104.318 29.3593C103.13 28.2079 102.183 26.8699 101.477 25.3451C100.802 23.8204 100.465 22.1867 100.465 20.4441C100.465 18.7016 100.802 17.0679 101.477 15.5431C102.151 13.9873 103.066 12.6337 104.222 11.4823C105.378 10.331 106.742 9.42857 108.316 8.77511C109.889 8.09052 111.591 7.74823 113.421 7.74823C115.219 7.74823 116.904 8.07496 118.478 8.72843C120.083 9.3819 121.464 10.2843 122.62 11.4356C123.808 12.5559 124.739 13.8784 125.413 15.4031C126.119 16.9279 126.473 18.5615 126.473 20.3041C126.473 21.2376 126.376 22.14 126.184 23.0113H107.978ZM113.421 14.5163C111.751 14.5163 110.322 15.0919 109.134 16.2433C108.428 16.9901 107.93 17.768 107.641 18.5771H119.296C119.007 17.6747 118.494 16.8812 117.755 16.1966C116.535 15.0764 115.09 14.5163 113.421 14.5163Z" fill="#9B9B9B"/>
<path d="M146.221 8.4017H151.085V13.116L144.005 19.9774L152 27.7256V32.4399H147.136L139.141 24.6917L131.146 32.4399H126.282V27.7256L134.277 19.9774L127.197 13.116V8.4017H132.061L139.141 15.2631L146.221 8.4017Z" fill="#9B9B9B"/>
</g>
</svg>
