<svg width="165" height="76" viewBox="0 0 165 76" fill="none" xmlns="http://www.w3.org/2000/svg">
<g opacity="0.7" clip-path="url(#clip0)">
<path d="M33.2506 60.6391C32.6308 61.0328 31.9906 61.3935 31.3327 61.7197C30.3854 62.1908 29.4079 62.5989 28.4066 62.9411C27.1912 63.3562 25.9464 63.6801 24.6826 63.9102C23.2713 64.174 21.8383 64.3047 20.4026 64.3005C17.2903 64.3005 14.5416 63.912 12.1564 63.1349C9.76237 62.357 6.57031 61.1568 4.94503 59.5293C3.31974 57.9017 2.08282 55.8121 1.24756 53.2313C0.412307 50.6505 0 47.5812 0 43.9942C0 40.4071 0.417627 37.3272 1.25022 34.757C2.08282 32.1869 3.31708 30.0867 4.94769 28.4591C6.57829 26.8315 9.76769 25.6314 12.1591 24.8535C14.5505 24.0755 17.3009 23.6879 20.4052 23.6879C21.8785 23.6794 23.349 23.8191 24.7943 24.1047C26.0571 24.352 27.3014 24.6856 28.5184 25.103C29.5005 25.4333 30.4594 25.8289 31.3885 26.2872C32.0271 26.609 32.6486 26.9635 33.2506 27.3493L29.0264 37.7255C28.2596 37.3831 27.4693 37.0956 26.6616 36.8652C25.829 36.6236 25.0044 36.4218 24.1905 36.2545C23.3765 36.0872 22.5944 35.9678 21.8815 35.8934C21.1686 35.8191 20.5515 35.7819 20.0754 35.7819C19.1251 35.7714 18.1761 35.855 17.2424 36.0315C16.45 36.1861 15.7177 36.5617 15.1303 37.1148C14.5363 37.6706 14.0929 38.4937 13.8003 39.584C13.5077 40.6744 13.3588 42.1444 13.3534 43.9942C13.3534 45.8439 13.5015 47.3051 13.7977 48.3778C14.0118 49.304 14.4712 50.1558 15.1277 50.8444C15.7069 51.4138 16.4416 51.7999 17.2398 51.9542C18.1733 52.132 19.1224 52.2156 20.0727 52.2038C20.6762 52.1977 21.279 52.1614 21.8789 52.0949C22.6024 52.0206 23.3721 51.9002 24.1878 51.7338C25.0018 51.5666 25.8264 51.3648 26.659 51.1232C27.4663 50.8916 28.2565 50.6041 29.0238 50.2629L33.2506 60.6391Z" fill="#0095D3"/>
<path d="M33.2506 60.6391C32.6308 61.0328 31.9906 61.3935 31.3327 61.7197C30.3854 62.1908 29.4079 62.5989 28.4066 62.9411C27.1912 63.3562 25.9464 63.6801 24.6826 63.9102C23.2713 64.174 21.8383 64.3047 20.4026 64.3005C17.2903 64.3005 14.5416 63.912 12.1564 63.1349C9.76237 62.357 6.57031 61.1568 4.94503 59.5293C3.31974 57.9017 2.08282 55.8121 1.24756 53.2313C0.412307 50.6505 0 47.5812 0 43.9942C0 40.4071 0.417627 37.3272 1.25022 34.757C2.08282 32.1869 3.31708 30.0867 4.94769 28.4591C6.57829 26.8315 9.76769 25.6314 12.1591 24.8535C14.5505 24.0755 17.3009 23.6879 20.4052 23.6879C21.8785 23.6794 23.349 23.8191 24.7943 24.1047C26.0571 24.352 27.3014 24.6856 28.5184 25.103C29.5005 25.4333 30.4594 25.8289 31.3885 26.2872C32.0271 26.609 32.6486 26.9635 33.2506 27.3493L29.0264 37.7255C28.2596 37.3831 27.4693 37.0956 26.6616 36.8652C25.829 36.6236 25.0044 36.4218 24.1905 36.2545C23.3765 36.0872 22.5944 35.9678 21.8815 35.8934C21.1686 35.8191 20.5515 35.7819 20.0754 35.7819C19.1251 35.7714 18.1761 35.855 17.2424 36.0315C16.45 36.1861 15.7177 36.5617 15.1303 37.1148C14.5363 37.6706 14.0929 38.4937 13.8003 39.584C13.5077 40.6744 13.3588 42.1444 13.3534 43.9942C13.3534 45.8439 13.5015 47.3051 13.7977 48.3778C14.0118 49.304 14.4712 50.1558 15.1277 50.8444C15.7069 51.4138 16.4416 51.7999 17.2398 51.9542C18.1733 52.132 19.1224 52.2156 20.0727 52.2038C20.6762 52.1977 21.279 52.1614 21.8789 52.0949C22.6024 52.0206 23.3721 51.9002 24.1878 51.7338C25.0018 51.5666 25.8264 51.3648 26.659 51.1232C27.4663 50.8916 28.2565 50.6041 29.0238 50.2629L33.2506 60.6391Z" fill="#9B9B9B"/>
<path d="M46.2382 64.15C42.844 64.15 40.2912 63.3534 38.5799 61.7604C36.8686 60.1673 36.0139 57.5635 36.0156 53.949C36.0156 50.3381 36.8704 47.7343 38.5799 46.1377C40.2894 44.5411 42.8422 43.7445 46.2382 43.7481C49.6342 43.7481 52.1869 44.5446 53.8964 46.1377C55.606 47.7307 56.4616 50.3345 56.4634 53.949C56.4634 57.5617 55.6077 60.1655 53.8964 61.7604C52.1852 63.3552 49.6324 64.1517 46.2382 64.15ZM49.3983 53.9464C49.4197 53.3675 49.3377 52.7894 49.1562 52.2391C49.03 51.8662 48.7981 51.5378 48.4886 51.2939C48.1918 51.0797 47.8479 50.9395 47.4857 50.885C46.6596 50.7611 45.8195 50.7611 44.9933 50.885C44.6311 50.9395 44.2873 51.0797 43.9904 51.2939C43.681 51.5384 43.4483 51.8665 43.3201 52.2391C42.9973 53.3545 42.9973 54.5382 43.3201 55.6536C43.4476 56.0266 43.6804 56.3548 43.9904 56.5988C44.2861 56.8152 44.6305 56.9556 44.9933 57.0077C45.8195 57.1316 46.6596 57.1316 47.4857 57.0077C47.8486 56.9556 48.193 56.8152 48.4886 56.5988C48.7986 56.3554 49.0307 56.0269 49.1562 55.6536C49.3379 55.1034 49.4199 54.5253 49.3983 53.9464Z" fill="#FFDD00"/>
<path d="M46.2382 64.15C42.844 64.15 40.2912 63.3534 38.5799 61.7604C36.8686 60.1673 36.0139 57.5635 36.0156 53.949C36.0156 50.3381 36.8704 47.7343 38.5799 46.1377C40.2894 44.5411 42.8422 43.7445 46.2382 43.7481C49.6342 43.7481 52.1869 44.5446 53.8964 46.1377C55.606 47.7307 56.4616 50.3345 56.4634 53.949C56.4634 57.5617 55.6077 60.1655 53.8964 61.7604C52.1852 63.3552 49.6324 64.1517 46.2382 64.15ZM49.3983 53.9464C49.4197 53.3675 49.3377 52.7894 49.1562 52.2391C49.03 51.8662 48.7981 51.5378 48.4886 51.2939C48.1918 51.0797 47.8479 50.9395 47.4857 50.885C46.6596 50.7611 45.8195 50.7611 44.9933 50.885C44.6311 50.9395 44.2873 51.0797 43.9904 51.2939C43.681 51.5384 43.4483 51.8665 43.3201 52.2391C42.9973 53.3545 42.9973 54.5382 43.3201 55.6536C43.4476 56.0266 43.6804 56.3548 43.9904 56.5988C44.2861 56.8152 44.6305 56.9556 44.9933 57.0077C45.8195 57.1316 46.6596 57.1316 47.4857 57.0077C47.8486 56.9556 48.193 56.8152 48.4886 56.5988C48.7986 56.3554 49.0307 56.0269 49.1562 55.6536C49.3379 55.1034 49.4199 54.5253 49.3983 53.9464Z" fill="#9B9B9B"/>
<path d="M72.1891 62.7409C71.3994 63.2343 70.5418 63.6099 69.6434 63.8561C68.8318 64.0395 68.0017 64.1286 67.1696 64.1216C66.0784 64.1408 64.99 64.004 63.9376 63.7153C63.0551 63.4647 62.2619 62.9694 61.65 62.2869C60.9788 61.4792 60.5076 60.525 60.2747 59.5017C59.9317 58.0368 59.7753 56.5345 59.8092 55.0305V37.3978L60.5913 37.0633C61.491 36.6643 62.4321 36.366 63.3976 36.1738C64.3624 35.9933 65.3421 35.9044 66.3237 35.9083H66.8823V55.0252C66.877 55.3977 66.8957 55.7702 66.9382 56.1403C66.956 56.357 67.0253 56.5663 67.1403 56.751C67.2324 56.8856 67.3721 56.9805 67.5313 57.0165C67.7335 57.0575 67.9396 57.0762 68.1458 57.0722C68.4015 57.0796 68.6572 57.0546 68.9066 56.9979C69.1829 56.9126 69.4502 56.8006 69.7046 56.6634L72.1944 62.7489L72.1891 62.7409Z" fill="#448C40"/>
<path d="M72.1891 62.7409C71.3994 63.2343 70.5418 63.6099 69.6434 63.8561C68.8318 64.0395 68.0017 64.1286 67.1696 64.1216C66.0784 64.1408 64.99 64.004 63.9376 63.7153C63.0551 63.4647 62.2619 62.9694 61.65 62.2869C60.9788 61.4792 60.5076 60.525 60.2747 59.5017C59.9317 58.0368 59.7753 56.5345 59.8092 55.0305V37.3978L60.5913 37.0633C61.491 36.6643 62.4321 36.366 63.3976 36.1738C64.3624 35.9933 65.3421 35.9044 66.3237 35.9083H66.8823V55.0252C66.877 55.3977 66.8957 55.7702 66.9382 56.1403C66.956 56.357 67.0253 56.5663 67.1403 56.751C67.2324 56.8856 67.3721 56.9805 67.5313 57.0165C67.7335 57.0575 67.9396 57.0762 68.1458 57.0722C68.4015 57.0796 68.6572 57.0546 68.9066 56.9979C69.1829 56.9126 69.4502 56.8006 69.7046 56.6634L72.1944 62.7489L72.1891 62.7409Z" fill="#9B9B9B"/>
<path d="M83.8982 64.1487C80.504 64.1487 77.9512 63.3522 76.2399 61.7591C74.5286 60.166 73.6765 57.5614 73.6836 53.9451C73.6836 50.3342 74.5384 47.7304 76.2479 46.1338C77.9575 44.5371 80.5102 43.7406 83.9062 43.7442C87.304 43.7442 89.8567 44.5407 91.5645 46.1338C93.2722 47.7268 94.1279 50.3306 94.1314 53.9451C94.1314 57.5578 93.2758 60.1616 91.5645 61.7565C89.8532 63.3513 87.2978 64.1487 83.8982 64.1487ZM87.0584 53.9451C87.0797 53.3662 86.9978 52.7881 86.8163 52.2379C86.6901 51.8649 86.4581 51.5366 86.1486 51.2927C85.8518 51.0785 85.508 50.9383 85.1458 50.8838C84.3196 50.7599 83.4795 50.7599 82.6533 50.8838C82.2911 50.9383 81.9473 51.0785 81.6505 51.2927C81.341 51.5372 81.1083 51.8652 80.9801 52.2379C80.6574 53.3532 80.6574 54.537 80.9801 55.6524C81.1077 56.0253 81.3404 56.3536 81.6505 56.5976C81.9461 56.8139 82.2905 56.9543 82.6533 57.0065C83.4795 57.1304 84.3196 57.1304 85.1458 57.0065C85.5086 56.9543 85.853 56.8139 86.1486 56.5976C86.4587 56.3542 86.6908 56.0256 86.8163 55.6524C86.998 55.1021 87.0799 54.524 87.0584 53.9451V53.9451Z" fill="#0095D3"/>
<path d="M83.8982 64.1487C80.504 64.1487 77.9512 63.3522 76.2399 61.7591C74.5286 60.166 73.6765 57.5614 73.6836 53.9451C73.6836 50.3342 74.5384 47.7304 76.2479 46.1338C77.9575 44.5371 80.5102 43.7406 83.9062 43.7442C87.304 43.7442 89.8567 44.5407 91.5645 46.1338C93.2722 47.7268 94.1279 50.3306 94.1314 53.9451C94.1314 57.5578 93.2758 60.1616 91.5645 61.7565C89.8532 63.3513 87.2978 64.1487 83.8982 64.1487ZM87.0584 53.9451C87.0797 53.3662 86.9978 52.7881 86.8163 52.2379C86.6901 51.8649 86.4581 51.5366 86.1486 51.2927C85.8518 51.0785 85.508 50.9383 85.1458 50.8838C84.3196 50.7599 83.4795 50.7599 82.6533 50.8838C82.2911 50.9383 81.9473 51.0785 81.6505 51.2927C81.341 51.5372 81.1083 51.8652 80.9801 52.2379C80.6574 53.3532 80.6574 54.537 80.9801 55.6524C81.1077 56.0253 81.3404 56.3536 81.6505 56.5976C81.9461 56.8139 82.2905 56.9543 82.6533 57.0065C83.4795 57.1304 84.3196 57.1304 85.1458 57.0065C85.5086 56.9543 85.853 56.8139 86.1486 56.5976C86.4587 56.3542 86.6908 56.0256 86.8163 55.6524C86.998 55.1021 87.0799 54.524 87.0584 53.9451V53.9451Z" fill="#9B9B9B"/>
<path d="M97.4648 63.7434V44.0744H100.997L103.562 45.7418C104.07 45.1814 104.674 44.7164 105.347 44.3691C106.171 43.9361 107.092 43.7195 108.023 43.7398C108.361 43.7299 108.7 43.7675 109.028 43.8513C109.275 43.9257 109.51 44 109.733 44.0744L108.618 50.7891H106.2C105.856 50.7706 105.513 50.8547 105.216 51.0308C104.984 51.1891 104.808 51.4168 104.713 51.6813C104.608 51.9918 104.552 52.3171 104.549 52.6451C104.535 53.0168 104.53 53.4124 104.53 53.8319V63.7408L97.4648 63.7434Z" fill="#E85222"/>
<path d="M97.4648 63.7434V44.0744H100.997L103.562 45.7418C104.07 45.1814 104.674 44.7164 105.347 44.3691C106.171 43.9361 107.092 43.7195 108.023 43.7398C108.361 43.7299 108.7 43.7675 109.028 43.8513C109.275 43.9257 109.51 44 109.733 44.0744L108.618 50.7891H106.2C105.856 50.7706 105.513 50.8547 105.216 51.0308C104.984 51.1891 104.808 51.4168 104.713 51.6813C104.608 51.9918 104.552 52.3171 104.549 52.6451C104.535 53.0168 104.53 53.4124 104.53 53.8319V63.7408L97.4648 63.7434Z" fill="#9B9B9B"/>
<path d="M115.712 43.3381C115.251 43.3418 114.79 43.2982 114.337 43.208C113.932 43.1301 113.55 42.9592 113.222 42.7088C112.877 42.4298 112.613 42.0629 112.459 41.6468C112.087 40.451 112.087 39.1705 112.459 37.9747C112.614 37.5589 112.877 37.1922 113.222 36.9127C113.55 36.6622 113.932 36.4914 114.337 36.4135C114.79 36.3233 115.251 36.2797 115.712 36.2834C116.168 36.2815 116.622 36.3251 117.069 36.4135C117.481 36.4892 117.869 36.6601 118.202 36.9127C118.547 37.1922 118.811 37.5589 118.965 37.9747C119.338 39.1705 119.338 40.451 118.965 41.6468C118.811 42.0629 118.548 42.4298 118.202 42.7088C117.869 42.9614 117.481 43.1323 117.069 43.208C116.622 43.2964 116.168 43.34 115.712 43.3381V43.3381ZM112.18 63.7479V45.5657L112.962 45.2312C113.865 44.8338 114.808 44.5364 115.776 44.3444C116.741 44.1639 117.721 44.075 118.702 44.0788H119.261V63.7453L112.18 63.7479Z" fill="#FFDD00"/>
<path d="M115.712 43.3381C115.251 43.3418 114.79 43.2982 114.337 43.208C113.932 43.1301 113.55 42.9592 113.222 42.7088C112.877 42.4298 112.613 42.0629 112.459 41.6468C112.087 40.451 112.087 39.1705 112.459 37.9747C112.614 37.5589 112.877 37.1922 113.222 36.9127C113.55 36.6622 113.932 36.4914 114.337 36.4135C114.79 36.3233 115.251 36.2797 115.712 36.2834C116.168 36.2815 116.622 36.3251 117.069 36.4135C117.481 36.4892 117.869 36.6601 118.202 36.9127C118.547 37.1922 118.811 37.5589 118.965 37.9747C119.338 39.1705 119.338 40.451 118.965 41.6468C118.811 42.0629 118.548 42.4298 118.202 42.7088C117.869 42.9614 117.481 43.1323 117.069 43.208C116.622 43.2964 116.168 43.34 115.712 43.3381V43.3381ZM112.18 63.7479V45.5657L112.962 45.2312C113.865 44.8338 114.808 44.5364 115.776 44.3444C116.741 44.1639 117.721 44.075 118.702 44.0788H119.261V63.7453L112.18 63.7479Z" fill="#9B9B9B"/>
<path d="M137.356 62.1893C136.424 62.703 135.444 63.1254 134.43 63.4505C133.328 63.7864 132.18 63.9494 131.028 63.9337C129.963 63.951 128.904 63.771 127.905 63.4027C127.014 63.0558 126.24 62.4638 125.673 61.6955C125.01 60.7471 124.549 59.6738 124.316 58.5412C123.98 56.9557 123.825 55.3373 123.853 53.7169V50.3873H121.473V44.0788H123.853V40.9643L124.633 40.6298C125.532 40.2308 126.474 39.9325 127.439 39.7403C128.404 39.5585 129.384 39.4696 130.365 39.4748H130.924V44.0788H136.193V50.3847H130.924V53.8762C130.924 54.5214 130.937 55.0338 130.961 55.4161C130.969 55.7283 131.032 56.0366 131.147 56.3268C131.186 56.4254 131.243 56.5154 131.317 56.5915C131.39 56.6677 131.478 56.7284 131.576 56.7702C131.82 56.8541 132.078 56.8919 132.336 56.8818C132.722 56.8882 133.106 56.8253 133.469 56.6959C133.805 56.5738 134.267 56.3746 134.863 56.1038L137.356 62.1893V62.1893Z" fill="#448C40"/>
<path d="M137.356 62.1893C136.424 62.703 135.444 63.1254 134.43 63.4505C133.328 63.7864 132.18 63.9494 131.028 63.9337C129.963 63.951 128.904 63.771 127.905 63.4027C127.014 63.0558 126.24 62.4638 125.673 61.6955C125.01 60.7471 124.549 59.6738 124.316 58.5412C123.98 56.9557 123.825 55.3373 123.853 53.7169V50.3873H121.473V44.0788H123.853V40.9643L124.633 40.6298C125.532 40.2308 126.474 39.9325 127.439 39.7403C128.404 39.5585 129.384 39.4696 130.365 39.4748H130.924V44.0788H136.193V50.3847H130.924V53.8762C130.924 54.5214 130.937 55.0338 130.961 55.4161C130.969 55.7283 131.032 56.0366 131.147 56.3268C131.186 56.4254 131.243 56.5154 131.317 56.5915C131.39 56.6677 131.478 56.7284 131.576 56.7702C131.82 56.8541 132.078 56.8919 132.336 56.8818C132.722 56.8882 133.106 56.8253 133.469 56.6959C133.805 56.5738 134.267 56.3746 134.863 56.1038L137.356 62.1893V62.1893Z" fill="#9B9B9B"/>
<path d="M131.83 71.1279C131.61 71.1279 128.277 72.1554 127.478 75.5699L126.372 75.5566C126.827 72.4129 129.668 70.9792 129.668 70.9792C127.754 70.7541 126.001 69.8035 124.771 68.3241C130.889 71.7093 135.006 69.6251 136.653 68.5896C136.9 68.4303 137.116 68.2949 137.307 68.1966C140.079 66.816 147.272 59.0975 148.799 57.2124C150.395 55.2529 160.546 51.0499 161.697 50.5746C162.291 50.3303 163.849 49.4887 163.961 48.5275C164.02 48.0177 163.647 47.4655 162.849 46.9026C159.708 44.6643 155.896 45.6122 153.374 46.2415L152.744 46.3955C150.762 46.8707 148.456 48.6125 147.078 49.6533C146.165 50.3436 145.862 50.564 145.583 50.6038C145.491 50.6165 145.397 50.6083 145.309 50.5798C145.22 50.5513 145.139 50.5033 145.072 50.4392C144.721 50.1047 144.761 49.4993 144.96 47.4469C145.072 46.2627 145.226 44.7918 145.226 43.3899C145.226 40.0577 145.921 38.7116 145.95 38.6558L145.984 38.5974C146.25 38.2018 147.048 37.0043 148.166 35.3555C150.52 31.8348 154.076 26.5166 156.539 23.0544C159.867 18.3734 158.596 16.0528 158.582 16.0289L158.55 15.9785L158.535 15.9254C158.269 15.1288 157.893 14.7093 157.356 14.5978C156.292 14.3934 154.834 15.4528 154.183 16.2334C153.946 16.5148 153.616 16.8865 153.196 17.3538C150.461 20.3687 147.916 23.5494 145.575 26.8777C142.383 31.4286 141.343 32.3313 140.539 32.4004C140.351 32.4082 140.163 32.3722 139.991 32.2952C139.819 32.2183 139.667 32.1025 139.547 31.957C138.901 31.3118 139.393 30.1541 140.287 28.046C140.64 27.2123 141.039 26.267 141.42 25.2289C141.921 23.7265 142.324 22.193 142.625 20.6382C143.05 18.6708 143.455 16.8122 144.173 15.3758C145.327 13.0738 146.248 7.73966 146.333 7.23784C146.359 4.76859 145.891 3.17552 144.984 2.62325C144.17 2.1294 143.09 2.57015 142.518 2.87549C141.066 3.65078 139.917 6.27138 139.297 7.67859C139.152 8.03438 138.988 8.38264 138.808 8.72205C138.451 9.33273 136.874 14.1066 135.903 17.1653L135.887 17.2105L135.866 17.2529C135.509 17.9247 134.536 21.1772 133.831 23.5535C133.416 24.9448 133.059 26.1476 132.87 26.6786C132.477 27.8097 131.894 28.5133 131.234 28.6646C131.017 28.7111 130.79 28.6996 130.578 28.631C130.366 28.5625 130.176 28.4395 130.027 28.2743C129.833 28.0831 129.434 27.6822 129.282 22.8897C129.2 20.9111 129.219 18.9296 129.338 16.9529C129.439 16.0608 129.705 14.5049 129.96 13.0021C130.216 11.4993 130.468 10.0177 130.54 9.28494C130.561 9.08049 130.591 8.85481 130.625 8.59195C130.838 6.99888 131.192 4.29598 129.873 2.08426C129.458 1.38597 128.984 1.02222 128.463 1.02222C127.558 1.0116 126.353 2.0232 125.289 3.6614C123.922 5.78549 123.161 11.4276 123.116 13.9978C123.109 15.3966 122.946 16.7903 122.629 18.153C122.555 18.5088 122.48 18.8779 122.398 19.3133C122.068 21.1028 121.81 23.758 121.985 25.6537C122.051 26.6932 121.945 27.7365 121.672 28.7416C121.193 30.6002 120.69 30.6719 120.499 30.7037C119.732 30.8338 118.903 30.0108 118.535 29.1399C118.293 28.5558 117.11 24.7324 116.809 23.2243C116.617 22.5025 116.36 21.7995 116.04 21.1241C115.535 19.9373 114.963 18.5938 114.74 17.1627C114.364 14.7731 112.816 10.9869 111.885 10.1797C110.837 9.27432 109.935 8.95039 109.201 9.21325C107.986 9.65134 107.4 11.6029 107.339 11.9374C107.289 12.333 107.573 15.6333 108.361 18.3389C108.978 20.463 109.252 23.1181 109.454 25.0404C109.518 25.6643 109.574 26.2033 109.63 26.5857C109.81 27.8495 110.35 29.4213 110.744 30.5683C110.813 30.7754 110.88 30.9639 110.936 31.1339C111.305 32.2411 111.598 33.181 111.609 33.2288C111.609 33.2288 111.321 33.4518 111.077 33.6722C110.901 33.8405 110.751 34.0337 110.632 34.2457C110.46 33.3056 110.235 32.3758 109.959 31.4605C109.904 31.2932 109.837 31.1047 109.768 30.9029C109.361 29.7134 108.802 28.0885 108.608 26.729C108.552 26.3281 108.494 25.7785 108.427 25.136C108.23 23.2455 107.962 20.6594 107.363 18.615C106.565 15.8962 106.217 12.3569 106.318 11.7568C106.318 11.7303 106.903 8.92915 108.842 8.23351C109.954 7.83259 111.204 8.23351 112.566 9.39114C113.795 10.4532 115.378 14.5261 115.758 16.9927C115.979 18.3203 116.511 19.5894 116.995 20.7099C117.344 21.4496 117.621 22.2203 117.825 23.0119C118.11 24.435 119.264 28.1867 119.493 28.7363C119.693 29.2169 120.214 29.485 120.397 29.3496C120.709 28.8372 121.097 27.2255 120.959 25.7387C120.775 23.7447 121.041 20.9754 121.384 19.1009C121.467 18.6575 121.549 18.2672 121.618 17.922C121.919 16.622 122.072 15.2922 122.073 13.9579C122.116 11.4382 122.871 5.46157 124.411 3.07197C125.023 2.16657 126.619 0 128.431 0H128.481C129.38 0.0159307 130.147 0.544299 130.758 1.57183C132.259 4.08888 131.876 7.00154 131.647 8.74064C131.615 8.99287 131.586 9.21325 131.567 9.39911C131.49 10.1585 131.24 11.6241 130.976 13.1773C130.71 14.6669 130.46 16.2068 130.362 17.0697C130.139 19.069 130.306 26.4157 130.774 27.2707C130.902 27.3902 130.974 27.3742 131 27.3663C131.173 27.3291 131.556 27.2999 131.894 26.3414C132.072 25.8316 132.426 24.6421 132.838 23.2615C133.785 20.0753 134.544 17.5795 134.927 16.8148C135.235 15.851 137.39 9.09642 137.914 8.2043C138.012 8.03438 138.18 7.67328 138.35 7.2697C139.063 5.63946 140.26 2.91266 142.026 1.95947C143.356 1.25056 144.591 1.16294 145.516 1.73379C146.78 2.49846 147.4 4.36501 147.362 7.28298V7.35998C147.322 7.59894 146.375 13.2835 145.099 15.8298C144.439 17.1573 144.051 18.9442 143.638 20.848C143.327 22.4488 142.911 24.0276 142.393 25.5741C142.005 26.6361 141.595 27.5946 141.239 28.4416C140.773 29.5381 140.345 30.7542 140.441 31.0967C140.486 31.1482 140.539 31.1921 140.598 31.2268C140.598 31.2268 140.702 31.3755 141.484 30.5312C142.642 29.1817 143.719 27.764 144.708 26.2856C147.076 22.9235 149.652 19.7126 152.422 16.6715C152.837 16.2095 153.161 15.8431 153.387 15.5749C154.185 14.6084 155.968 13.2835 157.55 13.5862C158.181 13.7084 159.027 14.1465 159.5 15.551C159.737 16.005 160.881 18.7212 157.372 23.6438C154.92 27.0954 151.368 32.4057 149.02 35.921C147.94 37.5354 147.158 38.7116 146.844 39.1497C146.766 39.3222 146.25 40.5728 146.25 43.3819C146.25 44.829 146.107 46.3291 145.984 47.5372C145.926 48.1505 145.862 48.8196 145.843 49.2763C146.03 49.1409 146.248 48.9762 146.45 48.8222C147.894 47.7337 150.307 45.9016 152.502 45.3839L153.121 45.2325C155.827 44.5581 159.918 43.5386 163.445 46.0556C164.573 46.8522 165.092 47.7283 164.985 48.639C164.783 50.3702 162.362 51.4083 162.086 51.5198C159.021 52.7757 150.802 56.3628 149.599 57.8496C148.16 59.6286 140.859 67.5674 137.768 69.11C137.576 69.213 137.389 69.3255 137.209 69.4472C135.617 70.5179 133.747 71.1019 131.828 71.1279H131.83Z" fill="#22201E"/>
<path d="M131.83 71.1279C131.61 71.1279 128.277 72.1554 127.478 75.5699L126.372 75.5566C126.827 72.4129 129.668 70.9792 129.668 70.9792C127.754 70.7541 126.001 69.8035 124.771 68.3241C130.889 71.7093 135.006 69.6251 136.653 68.5896C136.9 68.4303 137.116 68.2949 137.307 68.1966C140.079 66.816 147.272 59.0975 148.799 57.2124C150.395 55.2529 160.546 51.0499 161.697 50.5746C162.291 50.3303 163.849 49.4887 163.961 48.5275C164.02 48.0177 163.647 47.4655 162.849 46.9026C159.708 44.6643 155.896 45.6122 153.374 46.2415L152.744 46.3955C150.762 46.8707 148.456 48.6125 147.078 49.6533C146.165 50.3436 145.862 50.564 145.583 50.6038C145.491 50.6165 145.397 50.6083 145.309 50.5798C145.22 50.5513 145.139 50.5033 145.072 50.4392C144.721 50.1047 144.761 49.4993 144.96 47.4469C145.072 46.2627 145.226 44.7918 145.226 43.3899C145.226 40.0577 145.921 38.7116 145.95 38.6558L145.984 38.5974C146.25 38.2018 147.048 37.0043 148.166 35.3555C150.52 31.8348 154.076 26.5166 156.539 23.0544C159.867 18.3734 158.596 16.0528 158.582 16.0289L158.55 15.9785L158.535 15.9254C158.269 15.1288 157.893 14.7093 157.356 14.5978C156.292 14.3934 154.834 15.4528 154.183 16.2334C153.946 16.5148 153.616 16.8865 153.196 17.3538C150.461 20.3687 147.916 23.5494 145.575 26.8777C142.383 31.4286 141.343 32.3313 140.539 32.4004C140.351 32.4082 140.163 32.3722 139.991 32.2952C139.819 32.2183 139.667 32.1025 139.547 31.957C138.901 31.3118 139.393 30.1541 140.287 28.046C140.64 27.2123 141.039 26.267 141.42 25.2289C141.921 23.7265 142.324 22.193 142.625 20.6382C143.05 18.6708 143.455 16.8122 144.173 15.3758C145.327 13.0738 146.248 7.73966 146.333 7.23784C146.359 4.76859 145.891 3.17552 144.984 2.62325C144.17 2.1294 143.09 2.57015 142.518 2.87549C141.066 3.65078 139.917 6.27138 139.297 7.67859C139.152 8.03438 138.988 8.38264 138.808 8.72205C138.451 9.33273 136.874 14.1066 135.903 17.1653L135.887 17.2105L135.866 17.2529C135.509 17.9247 134.536 21.1772 133.831 23.5535C133.416 24.9448 133.059 26.1476 132.87 26.6786C132.477 27.8097 131.894 28.5133 131.234 28.6646C131.017 28.7111 130.79 28.6996 130.578 28.631C130.366 28.5625 130.176 28.4395 130.027 28.2743C129.833 28.0831 129.434 27.6822 129.282 22.8897C129.2 20.9111 129.219 18.9296 129.338 16.9529C129.439 16.0608 129.705 14.5049 129.96 13.0021C130.216 11.4993 130.468 10.0177 130.54 9.28494C130.561 9.08049 130.591 8.85481 130.625 8.59195C130.838 6.99888 131.192 4.29598 129.873 2.08426C129.458 1.38597 128.984 1.02222 128.463 1.02222C127.558 1.0116 126.353 2.0232 125.289 3.6614C123.922 5.78549 123.161 11.4276 123.116 13.9978C123.109 15.3966 122.946 16.7903 122.629 18.153C122.555 18.5088 122.48 18.8779 122.398 19.3133C122.068 21.1028 121.81 23.758 121.985 25.6537C122.051 26.6932 121.945 27.7365 121.672 28.7416C121.193 30.6002 120.69 30.6719 120.499 30.7037C119.732 30.8338 118.903 30.0108 118.535 29.1399C118.293 28.5558 117.11 24.7324 116.809 23.2243C116.617 22.5025 116.36 21.7995 116.04 21.1241C115.535 19.9373 114.963 18.5938 114.74 17.1627C114.364 14.7731 112.816 10.9869 111.885 10.1797C110.837 9.27432 109.935 8.95039 109.201 9.21325C107.986 9.65134 107.4 11.6029 107.339 11.9374C107.289 12.333 107.573 15.6333 108.361 18.3389C108.978 20.463 109.252 23.1181 109.454 25.0404C109.518 25.6643 109.574 26.2033 109.63 26.5857C109.81 27.8495 110.35 29.4213 110.744 30.5683C110.813 30.7754 110.88 30.9639 110.936 31.1339C111.305 32.2411 111.598 33.181 111.609 33.2288C111.609 33.2288 111.321 33.4518 111.077 33.6722C110.901 33.8405 110.751 34.0337 110.632 34.2457C110.46 33.3056 110.235 32.3758 109.959 31.4605C109.904 31.2932 109.837 31.1047 109.768 30.9029C109.361 29.7134 108.802 28.0885 108.608 26.729C108.552 26.3281 108.494 25.7785 108.427 25.136C108.23 23.2455 107.962 20.6594 107.363 18.615C106.565 15.8962 106.217 12.3569 106.318 11.7568C106.318 11.7303 106.903 8.92915 108.842 8.23351C109.954 7.83259 111.204 8.23351 112.566 9.39114C113.795 10.4532 115.378 14.5261 115.758 16.9927C115.979 18.3203 116.511 19.5894 116.995 20.7099C117.344 21.4496 117.621 22.2203 117.825 23.0119C118.11 24.435 119.264 28.1867 119.493 28.7363C119.693 29.2169 120.214 29.485 120.397 29.3496C120.709 28.8372 121.097 27.2255 120.959 25.7387C120.775 23.7447 121.041 20.9754 121.384 19.1009C121.467 18.6575 121.549 18.2672 121.618 17.922C121.919 16.622 122.072 15.2922 122.073 13.9579C122.116 11.4382 122.871 5.46157 124.411 3.07197C125.023 2.16657 126.619 0 128.431 0H128.481C129.38 0.0159307 130.147 0.544299 130.758 1.57183C132.259 4.08888 131.876 7.00154 131.647 8.74064C131.615 8.99287 131.586 9.21325 131.567 9.39911C131.49 10.1585 131.24 11.6241 130.976 13.1773C130.71 14.6669 130.46 16.2068 130.362 17.0697C130.139 19.069 130.306 26.4157 130.774 27.2707C130.902 27.3902 130.974 27.3742 131 27.3663C131.173 27.3291 131.556 27.2999 131.894 26.3414C132.072 25.8316 132.426 24.6421 132.838 23.2615C133.785 20.0753 134.544 17.5795 134.927 16.8148C135.235 15.851 137.39 9.09642 137.914 8.2043C138.012 8.03438 138.18 7.67328 138.35 7.2697C139.063 5.63946 140.26 2.91266 142.026 1.95947C143.356 1.25056 144.591 1.16294 145.516 1.73379C146.78 2.49846 147.4 4.36501 147.362 7.28298V7.35998C147.322 7.59894 146.375 13.2835 145.099 15.8298C144.439 17.1573 144.051 18.9442 143.638 20.848C143.327 22.4488 142.911 24.0276 142.393 25.5741C142.005 26.6361 141.595 27.5946 141.239 28.4416C140.773 29.5381 140.345 30.7542 140.441 31.0967C140.486 31.1482 140.539 31.1921 140.598 31.2268C140.598 31.2268 140.702 31.3755 141.484 30.5312C142.642 29.1817 143.719 27.764 144.708 26.2856C147.076 22.9235 149.652 19.7126 152.422 16.6715C152.837 16.2095 153.161 15.8431 153.387 15.5749C154.185 14.6084 155.968 13.2835 157.55 13.5862C158.181 13.7084 159.027 14.1465 159.5 15.551C159.737 16.005 160.881 18.7212 157.372 23.6438C154.92 27.0954 151.368 32.4057 149.02 35.921C147.94 37.5354 147.158 38.7116 146.844 39.1497C146.766 39.3222 146.25 40.5728 146.25 43.3819C146.25 44.829 146.107 46.3291 145.984 47.5372C145.926 48.1505 145.862 48.8196 145.843 49.2763C146.03 49.1409 146.248 48.9762 146.45 48.8222C147.894 47.7337 150.307 45.9016 152.502 45.3839L153.121 45.2325C155.827 44.5581 159.918 43.5386 163.445 46.0556C164.573 46.8522 165.092 47.7283 164.985 48.639C164.783 50.3702 162.362 51.4083 162.086 51.5198C159.021 52.7757 150.802 56.3628 149.599 57.8496C148.16 59.6286 140.859 67.5674 137.768 69.11C137.576 69.213 137.389 69.3255 137.209 69.4472C135.617 70.5179 133.747 71.1019 131.828 71.1279H131.83Z" fill="#9B9B9B"/>
<path d="M140.007 37.8359C140.007 33.4948 133.535 33.4948 133.535 37.8359C133.535 42.177 140.007 42.177 140.007 37.8359ZM137.39 38.2315C137.604 38.1886 137.796 38.0705 137.93 37.8986C138.065 37.7267 138.134 37.5123 138.124 37.2943C138.124 36.6464 137.637 36.2747 137.014 36.2747H135.735V39.3998H136.222V38.3032H136.9L137.714 39.3998H138.219V39.3228L137.39 38.2315ZM136.222 36.6942H136.977C137.061 36.6873 137.145 36.6976 137.224 36.7245C137.303 36.7515 137.376 36.7944 137.438 36.8507C137.5 36.907 137.55 36.9755 137.584 37.0518C137.618 37.1281 137.636 37.2107 137.637 37.2943C137.638 37.3786 137.621 37.4622 137.588 37.5396C137.554 37.617 137.505 37.6865 137.443 37.7434C137.38 37.8003 137.307 37.8434 137.226 37.8699C137.146 37.8964 137.061 37.9056 136.977 37.897H136.222V36.6942ZM134.11 37.8306C134.11 34.148 139.443 34.148 139.443 37.8306C139.443 41.5133 134.11 41.5079 134.11 37.8359V37.8306Z" fill="#9B9B9B"/>
<path d="M7.15209 71.2389C7.17337 70.6813 6.79298 70.5512 6.23438 70.6468V71.0716C6.70254 71.0132 6.652 71.3796 6.652 71.8336V76.0022H7.22391V73.8621C8.48743 74.7118 10.0356 73.971 10.0356 72.3965C10.0356 71.3849 9.46899 70.5592 8.43955 70.5592C8.18281 70.5414 7.92621 70.5957 7.69872 70.7158C7.47122 70.8359 7.28189 71.0171 7.15209 71.2389V71.2389ZM7.21859 72.2505C7.21072 71.9474 7.32368 71.6536 7.53264 71.4336C7.74161 71.2135 8.02952 71.0853 8.33315 71.0769C9.13116 71.0769 9.45569 71.6929 9.45569 72.4045C9.45569 73.7028 8.17887 74.0984 7.21859 73.3497V72.2505ZM14.4406 72.4124C14.4406 69.9565 10.7166 69.9565 10.7166 72.4124C10.7166 74.8684 14.4406 74.8498 14.4406 72.4124ZM11.2911 72.4124C11.2798 72.2367 11.3047 72.0606 11.3643 71.8949C11.4239 71.7291 11.5168 71.5774 11.6375 71.4489C11.7582 71.3205 11.9039 71.2181 12.0658 71.1482C12.2277 71.0782 12.4022 71.0421 12.5786 71.0421C12.755 71.0421 12.9295 71.0782 13.0914 71.1482C13.2532 71.2181 13.399 71.3205 13.5197 71.4489C13.6403 71.5774 13.7333 71.7291 13.7929 71.8949C13.8525 72.0606 13.8774 72.2367 13.866 72.4124C13.8774 72.5882 13.8525 72.7643 13.7929 72.93C13.7333 73.0958 13.6403 73.2475 13.5197 73.376C13.399 73.5044 13.2532 73.6068 13.0914 73.6767C12.9295 73.7467 12.755 73.7828 12.5786 73.7828C12.4022 73.7828 12.2277 73.7467 12.0658 73.6767C11.9039 73.6068 11.7582 73.5044 11.6375 73.376C11.5168 73.2475 11.4239 73.0958 11.3643 72.93C11.3047 72.7643 11.2798 72.5882 11.2911 72.4124V72.4124ZM15.1641 71.3212C15.5133 71.1489 15.8972 71.0581 16.2867 71.0557C16.699 71.0557 17.1751 71.13 17.1751 71.5867C17.1751 72.0434 16.6697 72.1177 16.2574 72.1177H15.8185V72.5718H16.2867C16.7735 72.5718 17.3879 72.6355 17.3879 73.1638C17.3879 73.6258 16.8825 73.7719 16.3904 73.7798C15.9085 73.7831 15.4371 73.6396 15.0391 73.3683L15.0099 73.8754C15.4506 74.1397 15.9561 74.2766 16.4702 74.271C17.2124 74.271 17.9625 73.963 17.9625 73.1851C17.9647 72.9677 17.8863 72.7572 17.7424 72.594C17.5986 72.4308 17.3994 72.3265 17.1831 72.3009C17.35 72.2566 17.4969 72.1571 17.5998 72.0187C17.7027 71.8803 17.7555 71.7112 17.7497 71.5389C17.7497 70.8114 17.0448 70.5937 16.3825 70.5937C15.9512 70.5806 15.5233 70.6717 15.1349 70.8592L15.1641 71.3159V71.3212ZM20.6465 73.3046L21.8648 71.8628V74.1701H22.4154V70.6521H22.2319L20.6359 72.5877L19.0398 70.6521H18.8483V74.1701H19.4069V71.8628L20.6013 73.3046H20.6465ZM25.9107 73.5462C25.9107 74.1914 26.19 74.3029 26.7752 74.2073V73.8329C26.3363 73.8913 26.3363 73.6657 26.3363 73.2833V71.8124C26.3576 70.8884 25.5889 70.5804 24.7882 70.5804C24.3453 70.5707 23.906 70.6615 23.5034 70.8459L23.5992 71.2867C23.9367 71.1036 24.3164 71.0121 24.7004 71.0212C25.1845 71.0212 25.815 71.1831 25.815 71.7752V72.2213C25.4392 72.0253 25.0207 71.925 24.5967 71.9292C23.8625 71.9292 23.2028 72.3461 23.2241 73.1506C23.248 73.8621 23.8412 74.2418 24.4956 74.2418C25.0276 74.2418 25.6314 74.0374 25.8895 73.5462H25.9107ZM25.8043 72.9913C25.6873 73.5223 25.0569 73.7533 24.594 73.7533C24.1977 73.7533 23.8093 73.5754 23.796 73.1293C23.7721 72.6249 24.2269 72.3673 24.6978 72.3673C25.0844 72.3723 25.4641 72.4707 25.8043 72.6541V72.9913ZM28.7969 70.6282L27.1344 74.1197V74.1834H27.7488L28.3287 72.8797L28.9166 71.4964L29.5045 72.8585L30.1056 74.1861H30.7307V74.1223L29.0389 70.6282H28.7969ZM32.8269 74.1887C33.5956 74.1887 34.367 73.8887 34.367 72.9966C34.367 72.1045 33.6036 71.815 32.8269 71.815H32.0049V70.6574H31.4463V74.1887H32.8269ZM32.8269 72.2691C33.3323 72.2691 33.8164 72.4602 33.8164 72.9966C33.8164 73.5329 33.3323 73.7214 32.8269 73.7214H32.0129V72.2691H32.8269ZM38.6603 72.4178C38.6603 69.9618 34.9363 69.9618 34.9363 72.4178C34.9363 74.8737 38.6524 74.8498 38.6524 72.4124L38.6603 72.4178ZM35.5135 72.4178C35.5022 72.242 35.5271 72.0659 35.5867 71.9002C35.6462 71.7345 35.7392 71.5827 35.8599 71.4542C35.9805 71.3258 36.1263 71.2234 36.2882 71.1535C36.45 71.0835 36.6246 71.0474 36.801 71.0474C36.9774 71.0474 37.1519 71.0835 37.3137 71.1535C37.4756 71.2234 37.6214 71.3258 37.742 71.4542C37.8627 71.5827 37.9557 71.7345 38.0153 71.9002C38.0748 72.0659 38.0997 72.242 38.0884 72.4178C38.0877 72.7596 37.951 73.0872 37.7083 73.3285C37.4656 73.5697 37.1368 73.7049 36.7943 73.7042C36.4518 73.7035 36.1236 73.567 35.8819 73.3247C35.6402 73.0825 35.5048 72.7543 35.5055 72.4124L35.5135 72.4178ZM41.0624 68.8041C40.2244 68.8041 39.5355 69.3033 39.5355 70.1821V74.0427C40.0229 74.2169 40.5366 74.3067 41.0544 74.3082C42.0732 74.2923 42.9164 73.8382 42.9164 72.6647C42.9164 71.9266 42.5866 71.377 41.8524 71.2017C42.0697 71.1212 42.2572 70.9763 42.3898 70.7865C42.5225 70.5967 42.5939 70.3711 42.5945 70.1397C42.5945 69.2608 41.9109 68.7988 41.0677 68.7988L41.0624 68.8041ZM40.0994 71.677C40.4193 71.5686 40.7539 71.5095 41.0916 71.5017C41.8896 71.5017 42.3525 71.8682 42.3605 72.6727C42.3684 73.4772 41.7965 73.817 41.0624 73.8223C40.7344 73.8191 40.4092 73.7626 40.0994 73.655V71.677ZM40.0994 70.1742C40.0994 69.6033 40.5782 69.3113 41.0757 69.3113C41.5731 69.3113 42.0226 69.6193 42.0226 70.1609C42.0226 71.1274 40.8416 70.9574 40.0994 71.1937V70.1742ZM44.3555 72.1522V68.9236H43.7756V74.1834H44.3555V72.6169H44.8183C44.9629 72.6197 45.1073 72.6073 45.2493 72.5797L46.3133 74.1728H46.9304V74.1091L45.7547 72.4045C46.5261 72.1124 46.7735 71.438 46.7602 70.6468H46.2282C46.2282 71.6053 45.7866 72.1469 44.8316 72.1469L44.3555 72.1522ZM50.0586 73.5488C50.0586 74.194 50.3246 74.3055 50.9258 74.21V73.8356C50.4922 73.894 50.5162 73.6683 50.5162 73.278V71.8071C50.5374 70.8831 49.766 70.5751 48.9654 70.5751C48.5225 70.5661 48.0834 70.6569 47.6805 70.8406L47.7763 71.2814C48.1138 71.0983 48.4935 71.0067 48.8776 71.0159C49.3617 71.0159 49.9948 71.1778 49.9948 71.7699V72.2213C49.6188 72.0258 49.2004 71.9255 48.7765 71.9292C48.0423 71.9292 47.38 72.3461 47.4039 73.1506C47.4252 73.8621 48.0184 74.2418 48.6727 74.2418C49.2048 74.2418 49.8112 74.0374 50.0666 73.5462L50.0586 73.5488ZM49.9788 72.9939C49.8618 73.5249 49.2287 73.7559 48.7685 73.7559C48.3722 73.7559 47.9705 73.578 47.9705 73.132C47.9492 72.6275 48.4041 72.37 48.8723 72.37C49.2625 72.3732 49.646 72.4717 49.9895 72.6567V72.9939H49.9788ZM54.1258 72.1496V68.9236H53.5459V74.1834H54.1258V72.6169H54.5887C54.7332 72.6197 54.8777 72.6073 55.0196 72.5797L56.0836 74.1728H56.7008V74.1091L55.5197 72.3939C56.2911 72.1018 56.5385 71.4274 56.5252 70.6362H55.9932C55.9932 71.5947 55.5516 72.1363 54.5967 72.1363L54.1258 72.1496ZM60.901 72.4151C60.901 69.9591 57.1769 69.9591 57.1769 72.4151C57.1769 74.8711 60.901 74.8498 60.901 72.4124V72.4151ZM57.7515 72.4151C57.7402 72.2394 57.7651 72.0632 57.8246 71.8975C57.8842 71.7318 57.9772 71.58 58.0979 71.4516C58.2185 71.3232 58.3643 71.2208 58.5262 71.1508C58.688 71.0808 58.8626 71.0447 59.0389 71.0447C59.2153 71.0447 59.3899 71.0808 59.5517 71.1508C59.7136 71.2208 59.8594 71.3232 59.98 71.4516C60.1007 71.58 60.1937 71.7318 60.2533 71.8975C60.3128 72.0632 60.3377 72.2394 60.3264 72.4151C60.3375 72.5908 60.3125 72.767 60.2527 72.9326C60.193 73.0983 60.0998 73.2499 59.979 73.3782C59.8582 73.5066 59.7124 73.6088 59.5504 73.6786C59.3885 73.7484 59.2139 73.7843 59.0375 73.7841C58.8611 73.784 58.6866 73.7477 58.5249 73.6775C58.3631 73.6074 58.2174 73.5049 58.0969 73.3763C57.9763 73.2477 57.8835 73.0959 57.8241 72.9301C57.7647 72.7643 57.74 72.5881 57.7515 72.4124V72.4151ZM62.9412 70.6282L61.2681 74.125V74.1887H61.8825L62.4624 72.8851L63.0503 71.5017L63.6382 72.8638L64.2393 74.1914H64.8644V74.1276L63.1833 70.6282H62.9412ZM66.9712 74.1887C67.74 74.1887 68.5114 73.8887 68.5114 72.9966C68.5114 72.1045 67.7479 71.815 66.9712 71.815H66.1466V70.6574H65.5906V74.1887H66.9712ZM66.9712 72.2691C67.4766 72.2691 67.9607 72.4602 67.9607 72.9966C67.9607 73.5329 67.4766 73.7214 66.9712 73.7214H66.1546V72.2691H66.9712ZM72.8047 72.4178C72.8047 69.9618 69.0806 69.9618 69.0806 72.4178C69.0806 74.8737 72.7967 74.8498 72.7967 72.4124L72.8047 72.4178ZM69.6578 72.4178C69.6465 72.242 69.6714 72.0659 69.731 71.9002C69.7906 71.7345 69.8836 71.5827 70.0042 71.4542C70.1249 71.3258 70.2707 71.2234 70.4325 71.1535C70.5944 71.0835 70.7689 71.0474 70.9453 71.0474C71.1217 71.0474 71.2962 71.0835 71.4581 71.1535C71.62 71.2234 71.7657 71.3258 71.8864 71.4542C72.0071 71.5827 72.1 71.7345 72.1596 71.9002C72.2192 72.0659 72.2441 72.242 72.2328 72.4178C72.2321 72.7596 72.0953 73.0872 71.8526 73.3285C71.6099 73.5697 71.2812 73.7049 70.9387 73.7042C70.5961 73.7035 70.2679 73.567 70.0263 73.3247C69.7846 73.0825 69.6492 72.7543 69.6499 72.4124L69.6578 72.4178ZM74.289 71.2442C74.3103 70.6866 73.9272 70.5565 73.3713 70.6521V71.0769C73.8394 71.0185 73.7889 71.3849 73.7889 71.8389V76.0075H74.3608V73.8675C75.6243 74.7171 77.1725 73.9763 77.1725 72.4018C77.1725 71.3902 76.6059 70.5645 75.5765 70.5645C75.3193 70.5462 75.0621 70.6002 74.8341 70.7204C74.6061 70.8405 74.4163 71.022 74.2863 71.2442H74.289ZM74.3555 72.2558C74.3476 71.9527 74.4606 71.6589 74.6695 71.4389C74.8785 71.2188 75.1664 71.0906 75.47 71.0822C76.2681 71.0822 76.5926 71.6982 76.5926 72.4098C76.5926 73.7081 75.3158 74.1038 74.3555 73.355V72.2558ZM81.5775 72.4178C81.5775 69.9618 77.8535 69.9618 77.8535 72.4178C77.8535 74.8737 81.5695 74.8498 81.5695 72.4124L81.5775 72.4178ZM78.428 72.4178C78.4167 72.242 78.4416 72.0659 78.5012 71.9002C78.5608 71.7345 78.6537 71.5827 78.7744 71.4542C78.8951 71.3258 79.0408 71.2234 79.2027 71.1535C79.3646 71.0835 79.5391 71.0474 79.7155 71.0474C79.8919 71.0474 80.0664 71.0835 80.2283 71.1535C80.3901 71.2234 80.5359 71.3258 80.6566 71.4542C80.7772 71.5827 80.8702 71.7345 80.9298 71.9002C80.9894 72.0659 81.0143 72.242 81.003 72.4178C81.0026 72.587 80.9688 72.7546 80.9036 72.9109C80.8384 73.0671 80.743 73.209 80.6228 73.3285C80.5026 73.4479 80.3601 73.5426 80.2033 73.6071C80.0464 73.6715 79.8784 73.7045 79.7088 73.7042C79.5392 73.7038 79.3714 73.6701 79.2148 73.605C79.0583 73.5399 78.9161 73.4447 78.7964 73.3247C78.6767 73.2048 78.5819 73.0625 78.5173 72.9059C78.4528 72.7494 78.4197 72.5817 78.42 72.4124L78.428 72.4178ZM83.9769 68.8041C83.139 68.8041 82.45 69.3033 82.45 70.1821V74.0427C82.9375 74.2169 83.4511 74.3067 83.9689 74.3082C84.9904 74.2923 85.8309 73.8382 85.8309 72.6647C85.8309 71.9266 85.5011 71.377 84.7669 71.2017C84.9847 71.1218 85.1726 70.9771 85.3053 70.7872C85.438 70.5973 85.5092 70.3712 85.5091 70.1397C85.5091 69.2608 84.8254 68.7988 83.9822 68.7988L83.9769 68.8041ZM82.9953 71.6717C83.3152 71.5632 83.6498 71.5042 83.9875 71.4964C84.7855 71.4964 85.251 71.8628 85.2564 72.6673C85.2617 73.4718 84.6924 73.8117 83.9583 73.817C83.6303 73.8138 83.3051 73.7573 82.9953 73.6497V71.6717ZM82.9953 70.1689C82.9953 69.598 83.4741 69.306 83.9716 69.306C84.469 69.306 84.9185 69.614 84.9185 70.1556C84.9185 71.1221 83.7375 70.9521 82.9953 71.1884V70.1689ZM87.3046 72.7125V71.4247C87.3046 70.6919 86.9375 70.5406 86.2911 70.6627V71.0663C86.6742 71.0159 86.7167 71.1406 86.7247 71.4407V72.7231C86.7247 73.594 87.1078 74.2524 88.0547 74.2524C88.5867 74.2524 89.0655 74.1356 89.3369 73.6444C89.3023 74.2604 89.7199 74.2976 90.2705 74.202V73.8064C89.9035 73.8436 89.8529 73.7692 89.8529 73.2488V70.6627H89.281V72.7151C89.2902 72.8558 89.2695 72.9969 89.2201 73.129C89.1707 73.2612 89.0939 73.3814 88.9946 73.4817C88.8954 73.582 88.7759 73.6603 88.6442 73.7112C88.5124 73.7621 88.3714 73.7846 88.2303 73.7772C87.6424 73.7772 87.3046 73.3603 87.3126 72.7151L87.3046 72.7125ZM92.8907 73.3046L94.109 71.8628V74.1701H94.6596V70.6521H94.4761L92.8801 72.5877L91.284 70.6521H91.0952V74.1701H91.6511V71.8628L92.8481 73.3046H92.8907ZM97.3596 71.0052C97.8304 70.9468 97.8011 71.1221 97.8011 71.6557V74.1834H98.381V72.1124C98.3732 71.9729 98.3945 71.8333 98.4437 71.7025C98.4929 71.5717 98.5688 71.4526 98.6667 71.3527C98.7645 71.2528 98.8821 71.1743 99.012 71.1223C99.1419 71.0702 99.2812 71.0457 99.4211 71.0504C99.5565 71.0464 99.6912 71.0707 99.8167 71.1217C99.9421 71.1726 100.056 71.2491 100.15 71.3464C100.244 71.4436 100.317 71.5593 100.363 71.6862C100.41 71.8131 100.43 71.9483 100.421 72.0832V73.4108C100.421 74.1436 100.794 74.2976 101.44 74.1728V73.7719C101.06 73.8223 101.006 73.6975 101.001 73.3975V72.0699C101.001 71.215 100.509 70.5698 99.5754 70.5698C99.0434 70.5698 98.5619 70.745 98.3358 71.2362C98.3358 70.6866 97.9315 70.4822 97.3516 70.6202L97.3596 71.0052ZM102.078 69.4892C102.074 69.5394 102.08 69.5899 102.097 69.6376C102.113 69.6853 102.139 69.7291 102.173 69.7662C102.207 69.8033 102.249 69.833 102.295 69.8532C102.341 69.8735 102.391 69.884 102.442 69.884C102.492 69.884 102.542 69.8735 102.588 69.8532C102.634 69.833 102.676 69.8033 102.71 69.7662C102.744 69.7291 102.77 69.6853 102.787 69.6376C102.803 69.5899 102.809 69.5394 102.805 69.4892C102.805 69.3916 102.766 69.2981 102.697 69.2291C102.628 69.1602 102.534 69.1214 102.436 69.1214C102.339 69.1214 102.245 69.1602 102.176 69.2291C102.107 69.2981 102.068 69.3916 102.068 69.4892H102.078ZM102.725 70.6813H102.148V74.1834H102.72L102.725 70.6813ZM107.122 71.7301C107.016 71.3828 106.797 71.0803 106.501 70.8695C106.205 70.6588 105.847 70.5515 105.483 70.5645C105.236 70.5542 104.988 70.594 104.756 70.6813C104.524 70.7687 104.312 70.9018 104.133 71.0729C103.954 71.2439 103.811 71.4492 103.713 71.6766C103.615 71.904 103.564 72.1488 103.564 72.3963C103.563 72.6437 103.612 72.8889 103.708 73.117C103.804 73.3451 103.946 73.5514 104.124 73.7237C104.302 73.896 104.513 74.0307 104.744 74.1197C104.975 74.2088 105.222 74.2503 105.47 74.2418C105.852 74.2584 106.228 74.1438 106.535 73.9172C106.843 73.6906 107.063 73.3657 107.159 72.9966H106.601C106.513 73.2208 106.358 73.4124 106.157 73.5451C105.956 73.6777 105.719 73.7449 105.478 73.7373C105.125 73.7335 104.789 73.5899 104.542 73.3382C104.295 73.0865 104.159 72.7473 104.163 72.3952C104.167 72.0431 104.31 71.707 104.563 71.4607C104.815 71.2145 105.155 71.0784 105.507 71.0822C105.73 71.0733 105.95 71.1307 106.139 71.247C106.329 71.3633 106.479 71.5333 106.571 71.7354L107.122 71.7301ZM108.545 72.1469V68.9236H107.965V74.1834H108.532V72.6169H108.995C109.14 72.6196 109.285 72.6072 109.428 72.5797L110.492 74.1728H111.109V74.1091L109.928 72.3939C110.7 72.1018 110.95 71.4274 110.934 70.6362H110.402C110.402 71.5947 109.96 72.1363 109.008 72.1363L108.545 72.1469ZM115.32 72.4124C115.32 69.9565 111.596 69.9565 111.596 72.4124C111.596 74.8684 115.31 74.8498 115.31 72.4124H115.32ZM112.171 72.4124C112.163 72.2386 112.19 72.065 112.251 71.902C112.313 71.739 112.406 71.5902 112.527 71.4643C112.647 71.3385 112.792 71.2384 112.952 71.17C113.113 71.1015 113.285 71.0663 113.459 71.0663C113.634 71.0663 113.806 71.1015 113.967 71.17C114.127 71.2384 114.272 71.3385 114.392 71.4643C114.513 71.5902 114.606 71.739 114.668 71.902C114.729 72.065 114.756 72.2386 114.748 72.4124C114.748 72.755 114.612 73.0836 114.369 73.3258C114.127 73.5681 113.797 73.7042 113.454 73.7042C113.111 73.7042 112.782 73.5681 112.539 73.3258C112.296 73.0836 112.16 72.755 112.16 72.4124H112.171ZM118.023 73.3046L119.241 71.8628V74.1701H119.792V70.6521H119.608L118.012 72.5877L116.416 70.6521H116.227V74.1701H116.783V71.8628L117.98 73.3046H118.023Z" fill="#9B9B9B"/>
</g>
<defs>
<clipPath id="clip0">
<rect width="165" height="76" fill="white"/>
</clipPath>
</defs>
</svg>
