<svg width="27" height="28" viewBox="0 0 27 28" fill="none" xmlns="http://www.w3.org/2000/svg">
<path d="M25.5692 1.04418C24.9003 0.364885 24.0986 0.0253906 23.1647 0.0253906H3.4082C2.47397 0.0253906 1.67256 0.365008 1.00343 1.04418C0.334415 1.72317 0 2.53688 0 3.48511V23.5415C0 24.4896 0.334355 25.3035 1.00343 25.9826C1.67256 26.6617 2.47415 27.0014 3.4082 27.0014H23.1644C24.0982 27.0014 24.9001 26.6617 25.569 25.9826C26.2382 25.3035 26.5723 24.4896 26.5723 23.5415V3.48511C26.5722 2.53669 26.2382 1.72342 25.5692 1.04418ZM9.5411 9.74611C10.5848 8.72178 11.839 8.20937 13.3038 8.20937C14.7798 8.20937 16.0397 8.72178 17.0837 9.74611C18.1276 10.7706 18.6492 12.0089 18.6492 13.4607C18.6492 14.9123 18.1276 16.1506 17.0837 17.1748C16.0397 18.1996 14.7803 18.7119 13.3038 18.7119C11.8391 18.7119 10.5849 18.1992 9.5411 17.1748C8.4972 16.1505 7.97531 14.9123 7.97531 13.4607C7.97531 12.0089 8.4972 10.7707 9.5411 9.74611ZM23.5626 22.8217C23.5626 23.1259 23.4585 23.3805 23.2511 23.5855C23.0431 23.7903 22.7955 23.8928 22.5069 23.8928H4.01377C3.71395 23.8928 3.46291 23.7903 3.26126 23.5855C3.0593 23.3809 2.95841 23.1259 2.95841 22.8217V11.4408H5.3976C5.16704 12.1785 5.05173 12.9456 5.05173 13.7416C5.05173 15.9901 5.85896 17.907 7.47359 19.4938C9.08841 21.08 11.0317 21.8734 13.3037 21.8734C14.803 21.8734 16.1869 21.5103 17.456 20.7845C18.7246 20.0582 19.7274 19.072 20.466 17.8249C21.2042 16.5779 21.5733 15.2167 21.5733 13.7416C21.5733 12.9456 21.4576 12.1788 21.227 11.4409H23.5627V22.8218H23.5626V22.8217ZM23.5626 7.13799C23.5626 7.47754 23.4473 7.76444 23.2162 7.99856C22.9857 8.23287 22.7033 8.34987 22.3686 8.34987H19.3586C19.0243 8.34987 18.7414 8.23281 18.5109 7.99856C18.2802 7.76444 18.165 7.47754 18.165 7.13799V4.24044C18.165 3.91257 18.2802 3.62868 18.5109 3.3886C18.7415 3.14863 19.0243 3.02849 19.3586 3.02849H22.3686C22.7033 3.02849 22.9858 3.14857 23.2162 3.3886C23.4472 3.62868 23.5626 3.91257 23.5626 4.24044V7.13799Z" fill="#12B6CC"/>
</svg>
