<svg width="26" height="26" viewBox="0 0 26 26" fill="none" xmlns="http://www.w3.org/2000/svg">
<g clip-path="url(#clip0)">
<path d="M25.9939 25.9999V25.9988H26.0004V16.4633C26.0004 11.7985 24.9961 8.20508 19.5426 8.20508C16.9209 8.20508 15.1616 9.64374 14.4434 11.0077H14.3675V8.64058H9.19678V25.9988H14.5809V17.4037C14.5809 15.1406 15.0099 12.9522 17.8125 12.9522C20.5739 12.9522 20.6151 15.5349 20.6151 17.5488V25.9999H25.9939Z" fill="#12B6CC"/>
<path d="M0.427734 8.64258H5.8184V26.0008H0.427734V8.64258Z" fill="#12B6CC"/>
<path d="M3.12217 0C1.39858 0 0 1.39858 0 3.12217C0 4.84575 1.39858 6.27358 3.12217 6.27358C4.84575 6.27358 6.24433 4.84575 6.24433 3.12217C6.24325 1.39858 4.84467 0 3.12217 0V0Z" fill="#12B6CC"/>
</g>
<defs>
<clipPath id="clip0">
<rect width="26" height="26" fill="white"/>
</clipPath>
</defs>
</svg>
