<svg width="135" height="33" viewBox="0 0 135 33" fill="none" xmlns="http://www.w3.org/2000/svg">
<path d="M0 0H135V32.1037H0V0Z" fill="#B9B9B9"/>
<path d="M19.953 10.0094C23.7981 10.0094 25.3105 12.1621 25.3105 16.0524C25.3105 19.9427 23.7981 22.0954 19.953 22.0954C16.1079 22.0954 14.5955 19.9427 14.5955 16.0524C14.5955 12.1621 16.1079 10.0094 19.953 10.0094ZM9.87891 16.0524C9.87891 22.7956 13.5445 25.5189 19.953 25.5189C26.3614 25.5189 30.0271 22.7956 30.0271 16.0524C30.0271 9.30917 26.3614 6.58594 19.953 6.58594C13.5445 6.58594 9.87891 9.30917 9.87891 16.0524Z" fill="white"/>
<path d="M51.5006 25.1298C52.1671 25.1298 52.7054 24.5852 52.7054 23.9368V8.168C52.7054 7.49368 52.1671 6.97497 51.5262 6.97497H35.2744C34.6336 6.97497 34.1209 7.49368 34.1209 8.168V23.9368C34.1209 24.5852 34.6336 25.1298 35.3 25.1298H37.6583C38.2992 25.1298 38.8375 24.5852 38.8375 23.9368V10.5541H47.9888V23.9368C47.9888 24.5852 48.5271 25.1298 49.1679 25.1298H51.5006Z" fill="white"/>
<path d="M66.8869 10.0094C70.732 10.0094 72.2444 12.1621 72.2444 16.0524C72.2444 19.9427 70.732 22.0954 66.8869 22.0954C63.0418 22.0954 61.5294 19.9427 61.5294 16.0524C61.5294 12.1621 63.0418 10.0094 66.8869 10.0094ZM56.8128 16.0524C56.8128 22.7956 60.4784 25.5189 66.8869 25.5189C73.2953 25.5189 76.961 22.7956 76.961 16.0524C76.961 9.30917 73.2953 6.58594 66.8869 6.58594C60.4784 6.58594 56.8128 9.30917 56.8128 16.0524Z" fill="white"/>
<path d="M90.3342 10.5541C92.7951 10.5541 94.6151 11.0728 94.6151 14.0294C94.6151 16.9861 92.7951 17.5048 90.3342 17.5048H85.7714V10.5541H90.3342ZM82.2083 6.97497C81.5675 6.97497 81.0548 7.49368 81.0548 8.168V23.9368C81.0548 24.5852 81.5931 25.1298 82.2339 25.1298H84.5922C85.2587 25.1298 85.7714 24.5852 85.7714 23.9368V21.0839H91.7697C96.5376 21.0839 99.3317 18.9053 99.3317 14.0294C99.3317 9.15355 96.5376 6.97497 91.7697 6.97497H82.2083Z" fill="white"/>
<path d="M100.907 23.9627C100.728 24.6111 101.112 25.1298 101.779 25.1298H104.24C104.906 25.1298 105.547 24.6111 105.726 23.9368L106.572 20.7467H115.467V23.9368C115.467 24.6111 115.98 25.1298 116.646 25.1298H119.005C119.645 25.1298 120.184 24.6111 120.184 23.9627V8.14207C120.184 7.51962 119.722 6.97497 119.107 6.97497H112.365C108.725 6.97497 105.111 7.88271 104.06 11.9027L100.907 23.9627ZM108.597 13.0958C109.007 11.5396 110.289 10.5541 111.904 10.5541H115.467V17.1676H107.495L108.597 13.0958Z" fill="white"/>
</svg>
