<svg width="134" height="27" viewBox="0 0 134 27" fill="none" xmlns="http://www.w3.org/2000/svg">
<path d="M0.29811 4.18837C0.447165 4.33795 0.670747 4.48754 0.968857 4.48754H21.9856C22.2092 4.48754 22.4328 4.33795 22.6563 4.18837C22.8799 4.03878 22.9545 3.81441 22.9545 3.59003V0.822715C22.9545 0.598338 22.8054 0.373961 22.6563 0.224377C22.4328 0.0747923 22.2092 0 21.9856 0H0.968857C0.670747 0 0.447165 0.0747923 0.29811 0.224377C0.0745275 0.373961 0 0.598338 0 0.822715V3.59003C0 3.81441 0.0745275 4.03878 0.29811 4.18837Z" fill="#B9B9B9"/>
<path fill-rule="evenodd" clip-rule="evenodd" d="M45.0126 26.9252C44.4909 26.9252 44.1183 26.8504 43.9692 26.626C43.7456 26.4017 43.5966 26.2521 43.522 26.0277L41.7334 21.7645C41.7334 21.6898 41.6588 21.615 41.5098 21.615H28.0948C28.0203 21.615 27.9458 21.6898 27.8713 21.7645L26.0826 26.0277C26.0081 26.1773 25.859 26.4017 25.6354 26.626C25.4864 26.7756 25.1137 26.9252 24.5921 26.9252H21.5364C21.3128 26.9252 21.0893 26.8504 20.8657 26.7008C20.7166 26.5513 20.5676 26.3269 20.5676 26.1025V25.8781L31.0014 1.19668C31.1505 0.747923 31.3741 0.448754 31.5231 0.299169C31.8212 0.0747922 32.1193 0 32.492 0H37.1872C37.5598 0 37.8579 0.0747922 38.0815 0.299169C38.3051 0.523546 38.4542 0.822715 38.6032 1.19668L49.0371 25.8781V26.1025C49.0371 26.3269 48.9625 26.5513 48.739 26.7008C48.5154 26.8504 48.3663 26.9252 48.0682 26.9252H45.0126ZM34.8023 5.60942C34.7278 5.60942 34.6533 5.68421 34.5787 5.759L29.8835 16.903V17.1274C29.9264 17.1705 29.9446 17.1888 29.9666 17.1965C29.9827 17.2022 30.0009 17.2022 30.0326 17.2022H39.4975C39.5721 17.2022 39.6466 17.2022 39.6466 17.1274C39.7211 17.0526 39.7211 16.9778 39.6466 16.903L35.0259 5.68421C35.0259 5.60942 34.8768 5.60942 34.8023 5.60942Z" fill="#B9B9B9"/>
<path fill-rule="evenodd" clip-rule="evenodd" d="M102.922 26.9252C102.4 26.9252 102.028 26.8504 101.879 26.626C101.655 26.4017 101.506 26.2521 101.432 26.0277L99.5684 21.6898C99.5684 21.615 99.4939 21.5402 99.3448 21.5402H85.9299C85.8554 21.5402 85.7808 21.615 85.7063 21.6898L83.8431 26.0277C83.7686 26.1773 83.6195 26.4017 83.396 26.626C83.2469 26.7756 82.8743 26.9252 82.3526 26.9252H79.297C79.0734 26.9252 78.8498 26.8504 78.6262 26.7008C78.4772 26.5513 78.3281 26.3269 78.3281 26.1025V25.8781L88.7619 1.19668C88.911 0.747923 89.1346 0.448754 89.2836 0.299169C89.4327 0.149585 89.7308 0 90.178 0H94.8732C95.2458 0 95.5439 0.0747922 95.7675 0.299169C95.9911 0.523546 96.1402 0.822715 96.2892 1.19668L106.723 25.8781V26.1025C106.723 26.3269 106.649 26.5513 106.425 26.7008C106.201 26.8504 106.052 26.9252 105.754 26.9252H102.922ZM92.7119 5.60942C92.6374 5.60942 92.5628 5.68421 92.4883 5.759L87.7931 16.903V17.1274C87.836 17.1705 87.8542 17.1888 87.8761 17.1965C87.8923 17.2022 87.9105 17.2022 87.9421 17.2022H97.2581C97.3326 17.2022 97.4071 17.2022 97.4071 17.1274C97.4816 17.0526 97.4816 16.9778 97.4071 16.903L92.7119 5.759C92.861 5.60942 92.7864 5.60942 92.7119 5.60942Z" fill="#B9B9B9"/>
<path d="M75.1993 25.6536C75.3483 25.7284 75.4229 25.878 75.4229 25.878V26.1024C75.4229 26.3268 75.2738 26.5511 75.1248 26.7007C74.9012 26.8503 74.6776 26.9251 74.454 26.9251H70.4295C69.9824 26.9251 69.5352 26.7755 69.2371 26.5511C68.8645 26.3268 68.7154 26.1772 68.6409 26.1024L62.306 19.5207L65.8088 16.0054L75.1993 25.6536Z" fill="#B9B9B9"/>
<path d="M75.1248 1.27147C75.2738 1.12188 75.3483 0.972299 75.3483 0.822715C75.3483 0.598338 75.2738 0.373961 75.0502 0.224377C74.8267 0.0747923 74.6776 0 74.3795 0H70.5041C70.0569 0 69.7588 0.0747923 69.5352 0.224377C69.2371 0.373961 69.0135 0.598338 68.7899 0.822715L58.6542 10.1717C58.6113 10.2148 58.5931 10.2331 58.5711 10.2408C58.555 10.2465 58.5368 10.2465 58.5051 10.2465H58.4306C58.3561 10.2465 58.2816 10.1717 58.2816 10.0222V0.822715C58.2816 0.598338 58.207 0.373961 57.9835 0.224377C57.8344 0.0747923 57.6108 0 57.3872 0H53.959C53.7354 0 53.5118 0.0747923 53.2882 0.224377C53.1392 0.373961 52.9901 0.598338 52.9901 0.822715V26.0277C52.9901 26.2521 53.0646 26.4765 53.2882 26.626C53.5118 26.7756 53.6609 26.8504 53.959 26.8504H57.3872C57.6108 26.8504 57.8344 26.7756 58.058 26.626C58.207 26.4765 58.3561 26.2521 58.3561 26.0277V17.4266C58.3561 17.3518 58.3561 17.3518 58.4306 17.277C58.5797 17.1274 75.1248 1.27147 75.1248 1.27147Z" fill="#B9B9B9"/>
<path d="M128.634 26.626C128.858 26.8504 129.23 26.9252 129.752 26.9252H133.255C133.478 26.9252 133.627 26.8504 133.776 26.7008C133.925 26.5513 134 26.4017 134 26.2521C134 26.1773 134 26.1025 133.925 25.9529L128.038 16.3047C128.038 16.3047 127.963 16.2299 128.038 16.1551C128.066 16.1266 128.084 16.098 128.099 16.0736C128.123 16.0341 128.141 16.0055 128.187 16.0055C129.976 15.3324 131.392 14.3601 132.286 13.0886C133.255 11.8172 133.702 10.2465 133.702 8.37673C133.702 5.759 132.808 3.73961 131.019 2.24377C129.156 0.747923 126.547 0 123.044 0H112.089C111.791 0 111.642 0.0747923 111.418 0.224377C111.195 0.373961 111.12 0.598338 111.12 0.822715V4.48753H122.821C124.461 4.48753 125.802 4.71191 126.771 5.23546C127.814 5.759 128.336 6.8061 128.336 8.37673C128.336 9.87258 127.814 10.9945 126.771 11.518C125.802 12.0416 124.461 12.3407 122.821 12.3407H116.635C116.486 12.3407 116.412 12.2659 116.412 12.1163V8.52632H111.12V26.1773C111.12 26.4017 111.269 26.626 111.418 26.7756C111.642 26.9252 111.865 27 112.089 27H115.517C115.815 27 115.964 26.9252 116.188 26.7756C116.412 26.626 116.486 26.4017 116.486 26.1773V17.0526C116.486 16.903 116.561 16.8283 116.71 16.8283H122.374C122.405 16.8283 122.424 16.8283 122.44 16.834C122.462 16.8417 122.48 16.86 122.523 16.903L128.112 26.0277C128.187 26.1773 128.411 26.4017 128.634 26.626Z" fill="#B9B9B9"/>
<path d="M9.76265 26.9243C9.53907 26.9243 9.31549 26.8495 9.0919 26.6999C8.94285 26.5503 8.79379 26.3259 8.79379 26.1016V8.52537H14.0852V26.1016C14.0852 26.3259 14.0107 26.5503 13.7871 26.6999C13.6381 26.8495 13.4145 26.9243 13.1909 26.9243H9.76265Z" fill="#B9B9B9"/>
</svg>
